ISO-10303-21;
HEADER;
FILE_DESCRIPTION (( 'STEP AP203' ),
    '1' );
FILE_NAME ('pcb.STEP',
    '2021-07-29T03:10:43',
    ( '' ),
    ( '' ),
    'SwSTEP 2.0',
    'SolidWorks 2020',
    '' );
FILE_SCHEMA (( 'CONFIG_CONTROL_DESIGN' ));
ENDSEC;

DATA;
#1 = LINE ( 'NONE', #523, #344 ) ;
#2 = CARTESIAN_POINT ( 'NONE',  ( -47.63325079088435388, 120.7387816069488906, 1.600999999999999979 ) ) ;
#3 = ORIENTED_EDGE ( 'NONE', *, *, #648, .T. ) ;
#4 = DIRECTION ( 'NONE',  ( -0.8660254037844551389, -0.4999999999999713007, 0.000000000000000000 ) ) ;
#5 = DIRECTION ( 'NONE',  ( -1.000000000000000000, 0.000000000000000000, 0.000000000000000000 ) ) ;
#6 = EDGE_CURVE ( 'NONE', #681, #216, #156, .T. ) ;
#7 = DIRECTION ( 'NONE',  ( 1.000000000000000000, 0.000000000000000000, -0.000000000000000000 ) ) ;
#8 = CARTESIAN_POINT ( 'NONE',  ( -54.04470733448581399, 125.0221522996537971, 1.600999999999999979 ) ) ;
#9 = VECTOR ( 'NONE', #13, 1000.000000000000000 ) ;
#10 = ORIENTED_EDGE ( 'NONE', *, *, #908, .F. ) ;
#11 = DIRECTION ( 'NONE',  ( 0.000000000000000000, 1.000000000000000000, -0.000000000000000000 ) ) ;
#12 = VECTOR ( 'NONE', #945, 1000.000000000000000 ) ;
#13 = DIRECTION ( 'NONE',  ( -0.000000000000000000, -0.000000000000000000, -1.000000000000000000 ) ) ;
#14 = CARTESIAN_POINT ( 'NONE',  ( 0.000000000000000000, 184.5890574457000071, 1.600000000000000089 ) ) ;
#15 = DATE_TIME_ROLE ( 'creation_date' ) ;
#16 = PLANE ( 'NONE',  #315 ) ;
#17 = LINE ( 'NONE', #824, #119 ) ;
#18 = CARTESIAN_POINT ( 'NONE',  ( 129.2759494494000307, 105.4022385418000027, 1.600000000000000089 ) ) ;
#19 = APPLICATION_PROTOCOL_DEFINITION ( 'international standard', 'config_control_design', 1994, #121 ) ;
#20 = VERTEX_POINT ( 'NONE', #616 ) ;
#21 = LINE ( 'NONE', #738, #833 ) ;
#22 = EDGE_CURVE ( 'NONE', #151, #268, #984, .T. ) ;
#23 = CARTESIAN_POINT ( 'NONE',  ( 129.2759494494000307, 201.5890574457000071, 1.600000000000000089 ) ) ;
#24 = CARTESIAN_POINT ( 'NONE',  ( 129.2759494494000307, 0.000000000000000000, 1.600000000000000089 ) ) ;
#25 = COORDINATED_UNIVERSAL_TIME_OFFSET ( 8, 0, .AHEAD. ) ;
#26 = VERTEX_POINT ( 'NONE', #173 ) ;
#27 = DIRECTION ( 'NONE',  ( -1.000000000000000000, 0.000000000000000000, 0.000000000000000000 ) ) ;
#28 = CIRCLE ( 'NONE', #830, 1.036678732839843686 ) ;
#29 = EDGE_CURVE ( 'NONE', #132, #595, #809, .T. ) ;
#30 = VECTOR ( 'NONE', #599, 1000.000000000000000 ) ;
#31 = CARTESIAN_POINT ( 'NONE',  ( -56.71519365252617462, 121.9782330748614356, 1.600999999999999979 ) ) ;
#32 = CARTESIAN_POINT ( 'NONE',  ( -61.33896801495502871, 109.3106406402155102, 1.600999999999999979 ) ) ;
#33 = EDGE_LOOP ( 'NONE', ( #797, #10, #1021, #1125 ) ) ;
#34 = CARTESIAN_POINT ( 'NONE',  ( -140.4240531977000046, 184.5890574457000071, 1.600000000000000089 ) ) ;
#35 = DIRECTION ( 'NONE',  ( -0.000000000000000000, 0.000000000000000000, -1.000000000000000000 ) ) ;
#36 = DIRECTION ( 'NONE',  ( 0.4999999999999713562, -0.8660254037844552499, 0.000000000000000000 ) ) ;
#37 = ORIENTED_EDGE ( 'NONE', *, *, #604, .F. ) ;
#38 = LINE ( 'NONE', #932, #66 ) ;
#39 = CARTESIAN_POINT ( 'NONE',  ( -61.76946456515575079, 118.5702504543442899, 1.600000000000000089 ) ) ;
#40 = CYLINDRICAL_SURFACE ( 'NONE', #271, 1.036678732839843686 ) ;
#41 = EDGE_CURVE ( 'NONE', #115, #591, #248, .T. ) ;
#42 = ORIENTED_EDGE ( 'NONE', *, *, #869, .T. ) ;
#43 = CARTESIAN_POINT ( 'NONE',  ( -58.33498330928794928, 119.1269368084533511, 1.600000000000000089 ) ) ;
#44 = ORIENTED_EDGE ( 'NONE', *, *, #625, .F. ) ;
#45 = AXIS2_PLACEMENT_3D ( 'NONE', #335, #784, #706 ) ;
#46 = AXIS2_PLACEMENT_3D ( 'NONE', #628, #289, #831 ) ;
#47 = CARTESIAN_POINT ( 'NONE',  ( -55.03628593858111628, 106.5378980340810955, 1.600000000000000089 ) ) ;
#48 = VECTOR ( 'NONE', #244, 1000.000000000000000 ) ;
#49 = DIRECTION ( 'NONE',  ( -0.000000000000000000, -0.000000000000000000, -1.000000000000000000 ) ) ;
#50 = ORIENTED_EDGE ( 'NONE', *, *, #786, .F. ) ;
#51 = CARTESIAN_POINT ( 'NONE',  ( -55.05454302468238126, 119.9743897182954697, 1.600999999999999979 ) ) ;
#52 = EDGE_LOOP ( 'NONE', ( #748, #399, #205, #286 ) ) ;
#53 = CARTESIAN_POINT ( 'NONE',  ( -157.4240531977000046, 0.000000000000000000, 1.600000000000000089 ) ) ;
#54 = CARTESIAN_POINT ( 'NONE',  ( 0.000000000000000000, 211.2138574457000004, 1.600000000000000089 ) ) ;
#55 = ORIENTED_EDGE ( 'NONE', *, *, #869, .F. ) ;
#56 = FACE_OUTER_BOUND ( 'NONE', #1014, .T. ) ;
#57 = ORIENTED_EDGE ( 'NONE', *, *, #957, .T. ) ;
#58 = EDGE_CURVE ( 'NONE', #430, #266, #785, .T. ) ;
#59 = CARTESIAN_POINT ( 'NONE',  ( -9.494884578000000630, 213.4138574456999891, 0.000000000000000000 ) ) ;
#60 = DIRECTION ( 'NONE',  ( 1.000000000000000000, 0.000000000000000000, 0.000000000000000000 ) ) ;
#61 = ORIENTED_EDGE ( 'NONE', *, *, #143, .F. ) ;
#62 = CARTESIAN_POINT ( 'NONE',  ( -57.46762712046380273, 117.6246318211489665, 1.600000000000000089 ) ) ;
#63 = EDGE_CURVE ( 'NONE', #790, #378, #383, .T. ) ;
#64 = AXIS2_PLACEMENT_3D ( 'NONE', #1067, #264, #974 ) ;
#65 = CARTESIAN_POINT ( 'NONE',  ( -23.65119192330000075, 0.000000000000000000, 1.600000000000000089 ) ) ;
#66 = VECTOR ( 'NONE', #27, 1000.000000000000000 ) ;
#67 = ORIENTED_EDGE ( 'NONE', *, *, #908, .T. ) ;
#68 = PLANE ( 'NONE',  #493 ) ;
#69 = CARTESIAN_POINT ( 'NONE',  ( -47.72242778463557755, 111.4934745156335936, 1.600000000000000089 ) ) ;
#70 = EDGE_CURVE ( 'NONE', #378, #790, #28, .T. ) ;
#71 = CARTESIAN_POINT ( 'NONE',  ( -61.76946456515575079, 118.5702504543442899, 1.600999999999999979 ) ) ;
#72 = ORIENTED_EDGE ( 'NONE', *, *, #690, .T. ) ;
#73 = FACE_OUTER_BOUND ( 'NONE', #822, .T. ) ;
#74 = ORIENTED_EDGE ( 'NONE', *, *, #1036, .T. ) ;
#75 = EDGE_CURVE ( 'NONE', #860, #967, #1, .T. ) ;
#76 =( LENGTH_UNIT ( ) NAMED_UNIT ( * ) SI_UNIT ( .MILLI., .METRE. ) );
#77 = ORIENTED_EDGE ( 'NONE', *, *, #160, .T. ) ;
#78 = FACE_OUTER_BOUND ( 'NONE', #895, .T. ) ;
#79 = CARTESIAN_POINT ( 'NONE',  ( -61.76946456515575079, 118.5702504543442899, 1.600999999999999979 ) ) ;
#80 = ORIENTED_EDGE ( 'NONE', *, *, #105, .T. ) ;
#81 = LINE ( 'NONE', #533, #884 ) ;
#82 = AXIS2_PLACEMENT_3D ( 'NONE', #155, #512, #964 ) ;
#83 = CC_DESIGN_PERSON_AND_ORGANIZATION_ASSIGNMENT ( #919, #1086, ( #795 ) ) ;
#84 = ORIENTED_EDGE ( 'NONE', *, *, #1046, .T. ) ;
#85 = CARTESIAN_POINT ( 'NONE',  ( -48.92314898865605954, 109.3305439596021102, 1.600000000000000089 ) ) ;
#86 = DIRECTION ( 'NONE',  ( -0.000000000000000000, -0.000000000000000000, -1.000000000000000000 ) ) ;
#87 = ORIENTED_EDGE ( 'NONE', *, *, #922, .T. ) ;
#88 =( NAMED_UNIT ( * ) PLANE_ANGLE_UNIT ( ) SI_UNIT ( $, .RADIAN. ) );
#89 = EDGE_LOOP ( 'NONE', ( #405, #1009, #857, #851 ) ) ;
#90 = CARTESIAN_POINT ( 'NONE',  ( -50.07375432950292549, 123.8780893867788677, 1.600000000000000089 ) ) ;
#91 = ADVANCED_FACE ( 'NONE', ( #352 ), #437, .T. ) ;
#92 = CARTESIAN_POINT ( 'NONE',  ( -64.02707420792904713, 110.8981455881244358, 1.600000000000000089 ) ) ;
#93 = ORIENTED_EDGE ( 'NONE', *, *, #712, .T. ) ;
#94 = VERTEX_POINT ( 'NONE', #623 ) ;
#95 = CARTESIAN_POINT ( 'NONE',  ( -58.74041932659848442, 119.8291725896543767, 1.600000000000000089 ) ) ;
#96 = EDGE_CURVE ( 'NONE', #137, #591, #181, .T. ) ;
#97 = DIRECTION ( 'NONE',  ( 0.000000000000000000, 1.000000000000000000, -0.000000000000000000 ) ) ;
#98 = CARTESIAN_POINT ( 'NONE',  ( -57.00756169617291391, 112.8951650811925589, 1.600999999999999979 ) ) ;
#99 = PERSON_AND_ORGANIZATION_ROLE ( 'design_owner' ) ;
#100 = VECTOR ( 'NONE', #307, 1000.000000000000000 ) ;
#101 = CARTESIAN_POINT ( 'NONE',  ( -18.65119192330000075, 0.000000000000000000, -4.000000000000000000 ) ) ;
#102 = CARTESIAN_POINT ( 'NONE',  ( -58.34403114534158163, 120.6308532180491824, 1.600999999999999979 ) ) ;
#103 = CARTESIAN_POINT ( 'NONE',  ( -154.4240531977000046, 0.000000000000000000, 1.600000000000000089 ) ) ;
#104 = SECURITY_CLASSIFICATION_LEVEL ( 'unclassified' ) ;
#105 = EDGE_CURVE ( 'NONE', #367, #535, #295, .T. ) ;
#106 = VERTEX_POINT ( 'NONE', #454 ) ;
#107 = CARTESIAN_POINT ( 'NONE',  ( -51.20719370783133684, 106.2155576481060422, 1.600999999999999979 ) ) ;
#108 = DIRECTION ( 'NONE',  ( -0.000000000000000000, -0.000000000000000000, -1.000000000000000000 ) ) ;
#109 = DIRECTION ( 'NONE',  ( -0.000000000000000000, 0.000000000000000000, -1.000000000000000000 ) ) ;
#110 = PERSON_AND_ORGANIZATION ( #189, #140 ) ;
#111 = ADVANCED_FACE ( 'NONE', ( #209 ), #735, .T. ) ;
#112 = LINE ( 'NONE', #467, #999 ) ;
#113 = DIRECTION ( 'NONE',  ( -0.000000000000000000, -0.000000000000000000, -1.000000000000000000 ) ) ;
#114 = CARTESIAN_POINT ( 'NONE',  ( -51.60371763489371943, 108.5994135110447019, 1.600999999999999979 ) ) ;
#115 = VERTEX_POINT ( 'NONE', #390 ) ;
#116 = CARTESIAN_POINT ( 'NONE',  ( -44.12769712112957166, 111.7726007538303605, 1.600000000000000089 ) ) ;
#117 = CC_DESIGN_DATE_AND_TIME_ASSIGNMENT ( #210, #1098, ( #722 ) ) ;
#118 = CLOSED_SHELL ( 'NONE', ( #772, #863, #166, #942, #733, #724, #111, #815, #542, #310, #218, #468, #476, #177, #655, #1023, #185, #1074, #683, #273, #1102, #934, #245, #597, #149, #192, #91 ) ) ;
#119 = VECTOR ( 'NONE', #389, 1000.000000000000000 ) ;
#120 = EDGE_CURVE ( 'NONE', #535, #367, #308, .T. ) ;
#121 = APPLICATION_CONTEXT ( 'configuration controlled 3d designs of mechanical parts and assemblies' ) ;
#122 = CIRCLE ( 'NONE', #511, 7.249920413456976576 ) ;
#123 = CARTESIAN_POINT ( 'NONE',  ( -57.34070323414459835, 116.6784729188105985, 1.600000000000000089 ) ) ;
#124 = FACE_BOUND ( 'NONE', #499, .T. ) ;
#125 = ORIENTED_EDGE ( 'NONE', *, *, #105, .F. ) ;
#126 = FACE_OUTER_BOUND ( 'NONE', #52, .T. ) ;
#127 = EDGE_CURVE ( 'NONE', #691, #94, #629, .T. ) ;
#128 = CARTESIAN_POINT ( 'NONE',  ( -58.34403114534158163, 120.6308532180491824, 1.600999999999999979 ) ) ;
#129 = CARTESIAN_POINT ( 'NONE',  ( -48.92314898865605954, 109.3305439596021102, 1.600999999999999979 ) ) ;
#130 = ORIENTED_EDGE ( 'NONE', *, *, #488, .T. ) ;
#131 = CARTESIAN_POINT ( 'NONE',  ( -140.4240531977000046, 198.5890574457000071, 0.000000000000000000 ) ) ;
#132 = VERTEX_POINT ( 'NONE', #187 ) ;
#133 = CARTESIAN_POINT ( 'NONE',  ( -53.07275031005590904, 106.0756116667682676, 1.600000000000000089 ) ) ;
#134 = DIRECTION ( 'NONE',  ( -0.000000000000000000, 0.000000000000000000, 1.000000000000000000 ) ) ;
#135 = ORIENTED_EDGE ( 'NONE', *, *, #1060, .T. ) ;
#136 = CARTESIAN_POINT ( 'NONE',  ( -58.74041932659854126, 119.8291725896544193, 1.600000000000000089 ) ) ;
#137 = VERTEX_POINT ( 'NONE', #1006 ) ;
#138 = VECTOR ( 'NONE', #970, 1000.000000000000000 ) ;
#139 = CARTESIAN_POINT ( 'NONE',  ( -43.75076237885523511, 108.9550582221971808, 1.600000000000000089 ) ) ;
#140 = ORGANIZATION ( '未指定', '未指定', '' ) ;
#141 = CARTESIAN_POINT ( 'NONE',  ( -52.76554927443196874, 117.3999900399641660, 1.600999999999999979 ) ) ;
#142 = ORIENTED_EDGE ( 'NONE', *, *, #510, .T. ) ;
#143 = EDGE_CURVE ( 'NONE', #222, #518, #634, .T. ) ;
#144 = LINE ( 'NONE', #1042, #982 ) ;
#145 = CARTESIAN_POINT ( 'NONE',  ( 129.2759494494000307, 105.4022385418000027, 1.600000000000000089 ) ) ;
#146 = CARTESIAN_POINT ( 'NONE',  ( -64.02707420792904713, 110.8981455881244358, 1.600999999999999979 ) ) ;
#147 = ORIENTED_EDGE ( 'NONE', *, *, #988, .T. ) ;
#148 = CARTESIAN_POINT ( 'NONE',  ( -45.88638601185805044, 115.9138118885420425, 1.600000000000000089 ) ) ;
#149 = ADVANCED_FACE ( 'NONE', ( #381, #925 ), #303, .T. ) ;
#150 = ORIENTED_EDGE ( 'NONE', *, *, #922, .F. ) ;
#151 = VERTEX_POINT ( 'NONE', #654 ) ;
#152 = CARTESIAN_POINT ( 'NONE',  ( -49.78265790893897247, 108.9855480266812435, 1.600000000000000089 ) ) ;
#153 = ORIENTED_EDGE ( 'NONE', *, *, #1066, .F. ) ;
#154 = EDGE_CURVE ( 'NONE', #1077, #715, #211, .T. ) ;
#155 = CARTESIAN_POINT ( 'NONE',  ( 0.000000000000000000, 0.000000000000000000, 0.000000000000000000 ) ) ;
#156 = LINE ( 'NONE', #167, #491 ) ;
#157 = CARTESIAN_POINT ( 'NONE',  ( -58.74041932659854126, 119.8291725896544193, 1.600999999999999979 ) ) ;
#158 = PRODUCT ( 'pcb', 'pcb', '', ( #977 ) ) ;
#159 = ORIENTED_EDGE ( 'NONE', *, *, #988, .F. ) ;
#160 = EDGE_CURVE ( 'NONE', #268, #300, #642, .T. ) ;
#161 = CARTESIAN_POINT ( 'NONE',  ( -47.32982896432618958, 116.8651006832272685, 1.600999999999999979 ) ) ;
#162 = CARTESIAN_POINT ( 'NONE',  ( -47.72242778463557755, 111.4934745156335936, 1.600999999999999979 ) ) ;
#163 = EDGE_LOOP ( 'NONE', ( #996, #502, #334, #87 ) ) ;
#164 = CYLINDRICAL_SURFACE ( 'NONE', #1076, 7.249920413456976576 ) ;
#165 = DIRECTION ( 'NONE',  ( 0.000000000000000000, 1.000000000000000000, -0.000000000000000000 ) ) ;
#166 = ADVANCED_FACE ( 'NONE', ( #124, #813, #805 ), #555, .T. ) ;
#167 = CARTESIAN_POINT ( 'NONE',  ( -4.494884577999999742, 201.5890574457000071, 1.600000000000000089 ) ) ;
#168 = DIRECTION ( 'NONE',  ( 1.000000000000000000, 0.000000000000000000, 0.000000000000000000 ) ) ;
#169 = ORIENTED_EDGE ( 'NONE', *, *, #202, .T. ) ;
#170 = CARTESIAN_POINT ( 'NONE',  ( -49.73182044357226772, 115.8410884026272498, 1.600000000000000089 ) ) ;
#171 = CARTESIAN_POINT ( 'NONE',  ( -9.494884578000000630, 213.4138574456999891, -4.000000000000000000 ) ) ;
#172 = AXIS2_PLACEMENT_3D ( 'NONE', #975, #875, #702 ) ;
#173 = CARTESIAN_POINT ( 'NONE',  ( -4.494884577999999742, 211.2138574457000004, 1.600000000000000089 ) ) ;
#174 = DIRECTION ( 'NONE',  ( -0.000000000000000000, -0.000000000000000000, -1.000000000000000000 ) ) ;
#175 = VECTOR ( 'NONE', #1146, 1000.000000000000000 ) ;
#176 = CIRCLE ( 'NONE', #700, 7.249920413456976576 ) ;
#177 = ADVANCED_FACE ( 'NONE', ( #909 ), #994, .T. ) ;
#178 = ORIENTED_EDGE ( 'NONE', *, *, #577, .T. ) ;
#179 = CARTESIAN_POINT ( 'NONE',  ( -23.65119192330000075, 201.5890574457000071, 1.600000000000000089 ) ) ;
#180 = CARTESIAN_POINT ( 'NONE',  ( -154.4240531977000046, 184.5890574457000071, 1.600000000000000089 ) ) ;
#181 = LINE ( 'NONE', #538, #940 ) ;
#182 = CARTESIAN_POINT ( 'NONE',  ( -59.71039254873078050, 124.0026199191554923, 1.600000000000000089 ) ) ;
#183 = VERTEX_POINT ( 'NONE', #584 ) ;
#184 = CARTESIAN_POINT ( 'NONE',  ( -57.00756169617291391, 112.8951650811925589, 1.600000000000000089 ) ) ;
#185 = ADVANCED_FACE ( 'NONE', ( #309 ), #1119, .T. ) ;
#186 = PLANE ( 'NONE',  #46 ) ;
#187 = CARTESIAN_POINT ( 'NONE',  ( -53.13630642531502701, 115.9138118885420425, 1.600000000000000089 ) ) ;
#188 = PERSON_AND_ORGANIZATION ( #189, #140 ) ;
#189 = PERSON ( '未指定', '未指定', '未指定', ('未指定'), ('未指定'), ('未指定') ) ;
#190 = VERTEX_POINT ( 'NONE', #141 ) ;
#191 = CARTESIAN_POINT ( 'NONE',  ( -23.65119192330000075, 0.000000000000000000, 0.000000000000000000 ) ) ;
#192 = ADVANCED_FACE ( 'NONE', ( #496 ), #40, .T. ) ;
#193 = CARTESIAN_POINT ( 'NONE',  ( -9.494884578000000630, 0.000000000000000000, -4.000000000000000000 ) ) ;
#194 = CARTESIAN_POINT ( 'NONE',  ( -45.46303573850377688, 112.7176272775063381, 1.600999999999999979 ) ) ;
#195 = APPROVAL_STATUS ( 'not_yet_approved' ) ;
#196 = VECTOR ( 'NONE', #1090, 1000.000000000000000 ) ;
#197 = AXIS2_PLACEMENT_3D ( 'NONE', #53, #325, #35 ) ;
#198 = ORIENTED_EDGE ( 'NONE', *, *, #288, .F. ) ;
#199 = DIRECTION ( 'NONE',  ( 0.000000000000000000, 0.000000000000000000, 1.000000000000000000 ) ) ;
#200 = LOCAL_TIME ( 11, 10, 43.00000000000000000, #455 ) ;
#201 = CARTESIAN_POINT ( 'NONE',  ( -53.01049824871006422, 117.2585686837270060, 1.600000000000000089 ) ) ;
#202 = EDGE_CURVE ( 'NONE', #151, #1052, #935, .T. ) ;
#203 = DIRECTION ( 'NONE',  ( -1.000000000000000000, 0.000000000000000000, 0.000000000000000000 ) ) ;
#204 = COORDINATED_UNIVERSAL_TIME_OFFSET ( 8, 0, .AHEAD. ) ;
#205 = ORIENTED_EDGE ( 'NONE', *, *, #120, .T. ) ;
#206 = CARTESIAN_POINT ( 'NONE',  ( -44.86781044079732084, 112.1898104436222496, 1.600999999999999979 ) ) ;
#207 = ADVANCED_BREP_SHAPE_REPRESENTATION ( 'pcb', ( #1112, #727, #236 ), #962 ) ;
#208 = DIRECTION ( 'NONE',  ( 0.000000000000000000, 0.000000000000000000, 1.000000000000000000 ) ) ;
#209 = FACE_OUTER_BOUND ( 'NONE', #425, .T. ) ;
#210 = DATE_AND_TIME ( #995, #622 ) ;
#211 = B_SPLINE_CURVE_WITH_KNOTS ( 'NONE', 3,
 ( #900, #559, #918, #114, #376, #98, #832, #215, #279, #566 ),
 .UNSPECIFIED., .F., .F.,
 ( 4, 3, 3, 4 ),
 ( 0.000000000000000000, 1.000000000000000000, 2.000000000000000000, 3.000000000000000000 ),
 .UNSPECIFIED. ) ;
#212 = ORIENTED_EDGE ( 'NONE', *, *, #70, .T. ) ;
#213 = LINE ( 'NONE', #562, #906 ) ;
#214 = CARTESIAN_POINT ( 'NONE',  ( -49.73182044357226772, 115.8410884026272498, 1.600999999999999979 ) ) ;
#215 = CARTESIAN_POINT ( 'NONE',  ( -57.54160033947397324, 118.3850755765025724, 1.600999999999999979 ) ) ;
#216 = VERTEX_POINT ( 'NONE', #941 ) ;
#217 = CARTESIAN_POINT ( 'NONE',  ( -44.18360620930394589, 112.1905145626920444, 1.600000000000000089 ) ) ;
#218 = ADVANCED_FACE ( 'NONE', ( #1020 ), #331, .T. ) ;
#219 = VECTOR ( 'NONE', #263, 1000.000000000000000 ) ;
#220 = CARTESIAN_POINT ( 'NONE',  ( -56.71990595309062400, 107.2785739701671588, 1.600000000000000089 ) ) ;
#221 = PLANE ( 'NONE',  #959 ) ;
#222 = VERTEX_POINT ( 'NONE', #487 ) ;
#223 = CARTESIAN_POINT ( 'NONE',  ( -57.34070323414459835, 116.6784729188105985, 1.600000000000000089 ) ) ;
#224 = DIRECTION ( 'NONE',  ( 0.000000000000000000, -0.000000000000000000, -1.000000000000000000 ) ) ;
#225 = DIRECTION ( 'NONE',  ( 0.8660254037844552499, 0.4999999999999713562, 0.000000000000000000 ) ) ;
#226 = VERTEX_POINT ( 'NONE', #1130 ) ;
#227 = LINE ( 'NONE', #419, #48 ) ;
#228 = ORIENTED_EDGE ( 'NONE', *, *, #58, .F. ) ;
#229 = PLANE ( 'NONE',  #472 ) ;
#230 = DIRECTION ( 'NONE',  ( 0.000000000000000000, 1.000000000000000000, -0.000000000000000000 ) ) ;
#231 = ORIENTED_EDGE ( 'NONE', *, *, #423, .T. ) ;
#232 = DIRECTION ( 'NONE',  ( 1.000000000000000000, 1.914198641692001400E-15, 0.000000000000000000 ) ) ;
#233 = ORIENTED_EDGE ( 'NONE', *, *, #1008, .T. ) ;
#234 = VECTOR ( 'NONE', #983, 1000.000000000000000 ) ;
#235 = CARTESIAN_POINT ( 'NONE',  ( -49.73182044357226772, 115.8410884026272498, 1.600000000000000089 ) ) ;
#236 = AXIS2_PLACEMENT_3D ( 'NONE', #703, #261, #168 ) ;
#237 = CARTESIAN_POINT ( 'NONE',  ( -157.4240531977000046, 105.4022385418000027, 0.000000000000000000 ) ) ;
#238 = EDGE_CURVE ( 'NONE', #677, #1082, #1075, .T. ) ;
#239 = VERTEX_POINT ( 'NONE', #326 ) ;
#240 = CARTESIAN_POINT ( 'NONE',  ( -50.05352401226704728, 122.8849621435742847, 1.600000000000000089 ) ) ;
#241 = ORIENTED_EDGE ( 'NONE', *, *, #63, .F. ) ;
#242 = CARTESIAN_POINT ( 'NONE',  ( 0.000000000000000000, 211.2138574457000004, -4.000000000000000000 ) ) ;
#243 = VERTEX_POINT ( 'NONE', #237 ) ;
#244 = DIRECTION ( 'NONE',  ( -1.000000000000000000, 0.000000000000000000, 0.000000000000000000 ) ) ;
#245 = ADVANCED_FACE ( 'NONE', ( #659 ), #221, .F. ) ;
#246 = EDGE_LOOP ( 'NONE', ( #439, #276, #260, #1032, #582, #93, #233, #159 ) ) ;
#247 = LINE ( 'NONE', #864, #641 ) ;
#248 = LINE ( 'NONE', #600, #904 ) ;
#249 = CARTESIAN_POINT ( 'NONE',  ( -50.67796198116474926, 108.6268770753913202, 1.600000000000000089 ) ) ;
#250 = EDGE_LOOP ( 'NONE', ( #135, #432, #807, #37, #178, #1099, #1034, #342 ) ) ;
#251 = ADVANCED_FACE ( 'NONE', ( #1124 ), #682, .F. ) ;
#252 = VECTOR ( 'NONE', #1100, 1000.000000000000000 ) ;
#253 = CARTESIAN_POINT ( 'NONE',  ( 0.000000000000000000, 184.5890574457000071, 1.600000000000000089 ) ) ;
#254 = CARTESIAN_POINT ( 'NONE',  ( -50.05352401226704728, 122.8849621435742847, 1.600999999999999979 ) ) ;
#255 = CARTESIAN_POINT ( 'NONE',  ( -45.46303573850377688, 112.7176272775063381, 1.600999999999999979 ) ) ;
#256 = VERTEX_POINT ( 'NONE', #672 ) ;
#257 = FACE_OUTER_BOUND ( 'NONE', #1028, .T. ) ;
#258 = CC_DESIGN_PERSON_AND_ORGANIZATION_ASSIGNMENT ( #466, #826, ( #722 ) ) ;
#259 = CARTESIAN_POINT ( 'NONE',  ( -53.01049824871006422, 117.2585686837270060, 1.600999999999999979 ) ) ;
#260 = ORIENTED_EDGE ( 'NONE', *, *, #96, .F. ) ;
#261 = DIRECTION ( 'NONE',  ( 0.000000000000000000, 0.000000000000000000, 1.000000000000000000 ) ) ;
#262 = ORIENTED_EDGE ( 'NONE', *, *, #288, .T. ) ;
#263 = DIRECTION ( 'NONE',  ( 0.000000000000000000, -1.000000000000000000, 0.000000000000000000 ) ) ;
#264 = DIRECTION ( 'NONE',  ( 0.000000000000000000, 1.000000000000000000, -0.000000000000000000 ) ) ;
#265 = EDGE_CURVE ( 'NONE', #1077, #20, #639, .T. ) ;
#266 = VERTEX_POINT ( 'NONE', #845 ) ;
#267 = CARTESIAN_POINT ( 'NONE',  ( -56.42863446577408837, 124.5931678412539583, 1.600000000000000089 ) ) ;
#268 = VERTEX_POINT ( 'NONE', #590 ) ;
#269 = CARTESIAN_POINT ( 'NONE',  ( -157.4240531977000046, 201.5890574457000071, 1.600000000000000089 ) ) ;
#270 = CARTESIAN_POINT ( 'NONE',  ( 0.000000000000000000, 201.5890574457000071, 0.000000000000000000 ) ) ;
#271 = AXIS2_PLACEMENT_3D ( 'NONE', #756, #1107, #1025 ) ;
#272 = EDGE_LOOP ( 'NONE', ( #944, #373, #880, #485 ) ) ;
#273 = ADVANCED_FACE ( 'NONE', ( #501 ), #930, .F. ) ;
#274 = LINE ( 'NONE', #519, #330 ) ;
#275 = VECTOR ( 'NONE', #4, 1000.000000000000000 ) ;
#276 = ORIENTED_EDGE ( 'NONE', *, *, #821, .T. ) ;
#277 = LINE ( 'NONE', #179, #329 ) ;
#278 = LINE ( 'NONE', #375, #9 ) ;
#279 = CARTESIAN_POINT ( 'NONE',  ( -58.33498330928794928, 119.1269368084533511, 1.600999999999999979 ) ) ;
#280 = CARTESIAN_POINT ( 'NONE',  ( -45.18328049463511320, 112.4695539384695024, 1.600000000000000089 ) ) ;
#281 = ORIENTED_EDGE ( 'NONE', *, *, #154, .F. ) ;
#282 = CARTESIAN_POINT ( 'NONE',  ( -48.92314898865605954, 109.3305439596021102, 1.600000000000000089 ) ) ;
#283 = CARTESIAN_POINT ( 'NONE',  ( -45.18328049463511320, 112.4695539384695024, 1.600999999999999979 ) ) ;
#284 = DIRECTION ( 'NONE',  ( 1.000000000000000000, 0.000000000000000000, 0.000000000000000000 ) ) ;
#285 = CALENDAR_DATE ( 2021, 29, 7 ) ;
#286 = ORIENTED_EDGE ( 'NONE', *, *, #1152, .T. ) ;
#287 = CARTESIAN_POINT ( 'NONE',  ( 0.000000000000000000, 211.2138574457000004, -4.000000000000000000 ) ) ;
#288 = EDGE_CURVE ( 'NONE', #1077, #877, #594, .T. ) ;
#289 = DIRECTION ( 'NONE',  ( -0.000000000000000000, 0.000000000000000000, 1.000000000000000000 ) ) ;
#290 = CARTESIAN_POINT ( 'NONE',  ( -45.18328049463511320, 112.4695539384695024, 1.600999999999999979 ) ) ;
#291 = CALENDAR_DATE ( 2021, 29, 7 ) ;
#292 = AXIS2_PLACEMENT_3D ( 'NONE', #1073, #871, #796 ) ;
#293 = ORIENTED_EDGE ( 'NONE', *, *, #856, .T. ) ;
#294 = CARTESIAN_POINT ( 'NONE',  ( -61.76946456515575079, 118.5702504543442899, 1.600000000000000089 ) ) ;
#295 = B_SPLINE_CURVE_WITH_KNOTS ( 'NONE', 3,
 ( #71, #427, #1143, #341, #693, #1054, #254, #606, #161, #825, #1012, #194, #290 ),
 .UNSPECIFIED., .F., .F.,
 ( 4, 3, 3, 3, 4 ),
 ( 0.000000000000000000, 1.000000000000000000, 2.000000000000000000, 3.000000000000000000, 4.000000000000000000 ),
 .UNSPECIFIED. ) ;
#296 = CC_DESIGN_SECURITY_CLASSIFICATION ( #722, ( #795 ) ) ;
#297 = CARTESIAN_POINT ( 'NONE',  ( -157.4240531977000046, 0.000000000000000000, 1.600000000000000089 ) ) ;
#298 = DIRECTION ( 'NONE',  ( 1.000000000000000000, 0.000000000000000000, 0.000000000000000000 ) ) ;
#299 = PERSON_AND_ORGANIZATION ( #189, #140 ) ;
#300 = VERTEX_POINT ( 'NONE', #317 ) ;
#301 = CARTESIAN_POINT ( 'NONE',  ( -49.26719808979645876, 106.3610877222046440, 1.600000000000000089 ) ) ;
#302 = FACE_BOUND ( 'NONE', #360, .T. ) ;
#303 = PLANE ( 'NONE',  #362 ) ;
#304 = EDGE_CURVE ( 'NONE', #418, #428, #1037, .T. ) ;
#305 = ORIENTED_EDGE ( 'NONE', *, *, #120, .F. ) ;
#306 = CARTESIAN_POINT ( 'NONE',  ( -57.34070323414459835, 116.6784729188105985, 1.600999999999999979 ) ) ;
#307 = DIRECTION ( 'NONE',  ( 0.000000000000000000, 1.000000000000000000, -0.000000000000000000 ) ) ;
#308 = B_SPLINE_CURVE_WITH_KNOTS ( 'NONE', 3,
 ( #747, #544, #649, #465, #743, #819, #990, #1097, #1103, #723, #32, #1085, #365 ),
 .UNSPECIFIED., .F., .F.,
 ( 4, 3, 3, 3, 4 ),
 ( 4.000000000000000000, 5.000000000000000000, 6.000000000000000000, 7.000000000000000000, 8.000000000000000000 ),
 .UNSPECIFIED. ) ;
#309 = FACE_OUTER_BOUND ( 'NONE', #838, .T. ) ;
#310 = ADVANCED_FACE ( 'NONE', ( #953 ), #478, .F. ) ;
#311 = ORIENTED_EDGE ( 'NONE', *, *, #698, .T. ) ;
#312 = CARTESIAN_POINT ( 'NONE',  ( -44.12769712112957166, 111.7726007538303605, 1.600999999999999979 ) ) ;
#313 = CLOSED_SHELL ( 'NONE', ( #803, #407, #739, #976, #251, #453 ) ) ;
#314 = AXIS2_PLACEMENT_3D ( 'NONE', #101, #710, #361 ) ;
#315 = AXIS2_PLACEMENT_3D ( 'NONE', #287, #997, #199 ) ;
#316 = DIRECTION ( 'NONE',  ( -0.000000000000000000, 0.000000000000000000, 1.000000000000000000 ) ) ;
#317 = CARTESIAN_POINT ( 'NONE',  ( -18.65119192330000075, 211.2138574457000004, 0.000000000000000000 ) ) ;
#318 = ORIENTED_EDGE ( 'NONE', *, *, #561, .F. ) ;
#319 = CARTESIAN_POINT ( 'NONE',  ( -46.22499379731603852, 113.9910115931604082, 1.600000000000000089 ) ) ;
#320 = CARTESIAN_POINT ( 'NONE',  ( -57.67657322421663224, 121.7032199401192685, 1.600000000000000089 ) ) ;
#321 = DIRECTION ( 'NONE',  ( 0.000000000000000000, -0.000000000000000000, -1.000000000000000000 ) ) ;
#322 = ORIENTED_EDGE ( 'NONE', *, *, #394, .T. ) ;
#323 = CARTESIAN_POINT ( 'NONE',  ( -47.32982896432618958, 116.8651006832272685, 1.600000000000000089 ) ) ;
#324 = EDGE_CURVE ( 'NONE', #681, #26, #751, .T. ) ;
#325 = DIRECTION ( 'NONE',  ( 1.000000000000000000, 0.000000000000000000, -0.000000000000000000 ) ) ;
#326 = CARTESIAN_POINT ( 'NONE',  ( -18.65119192330000075, 213.4138574456999891, -4.000000000000000000 ) ) ;
#327 = EDGE_LOOP ( 'NONE', ( #462, #1145, #920, #408, #445, #709 ) ) ;
#328 = CARTESIAN_POINT ( 'NONE',  ( -51.85617643632263452, 124.4834666068837663, 1.600000000000000089 ) ) ;
#329 = VECTOR ( 'NONE', #991, 1000.000000000000000 ) ;
#330 = VECTOR ( 'NONE', #174, 1000.000000000000000 ) ;
#331 = PLANE ( 'NONE',  #717 ) ;
#332 = ORIENTED_EDGE ( 'NONE', *, *, #898, .F. ) ;
#333 = CARTESIAN_POINT ( 'NONE',  ( -59.71039254873078050, 124.0026199191554923, 1.600000000000000089 ) ) ;
#334 = ORIENTED_EDGE ( 'NONE', *, *, #625, .T. ) ;
#335 = CARTESIAN_POINT ( 'NONE',  ( -46.38378661078900933, 117.7426632156220734, 1.600999999999999979 ) ) ;
#336 = EDGE_LOOP ( 'NONE', ( #509, #954, #972, #783 ) ) ;
#337 = EDGE_CURVE ( 'NONE', #268, #725, #505, .T. ) ;
#338 = DIRECTION ( 'NONE',  ( -1.000000000000000000, 0.000000000000000000, 0.000000000000000000 ) ) ;
#339 = ORIENTED_EDGE ( 'NONE', *, *, #1029, .T. ) ;
#340 = DIRECTION ( 'NONE',  ( 1.000000000000000000, 0.000000000000000000, -0.000000000000000000 ) ) ;
#341 = CARTESIAN_POINT ( 'NONE',  ( -56.42863446577408837, 124.5931678412539583, 1.600999999999999979 ) ) ;
#342 = ORIENTED_EDGE ( 'NONE', *, *, #441, .F. ) ;
#343 = FACE_OUTER_BOUND ( 'NONE', #497, .T. ) ;
#344 = VECTOR ( 'NONE', #713, 1000.000000000000000 ) ;
#345 = DIRECTION ( 'NONE',  ( -0.000000000000000000, 0.000000000000000000, -1.000000000000000000 ) ) ;
#346 = DIRECTION ( 'NONE',  ( -0.000000000000000000, -0.000000000000000000, -1.000000000000000000 ) ) ;
#347 = CARTESIAN_POINT ( 'NONE',  ( -46.05991064488129894, 113.5615686305051497, 1.600000000000000089 ) ) ;
#348 = ORIENTED_EDGE ( 'NONE', *, *, #337, .T. ) ;
#349 = DIRECTION ( 'NONE',  ( -1.000000000000000000, 0.000000000000000000, 0.000000000000000000 ) ) ;
#350 = EDGE_CURVE ( 'NONE', #448, #243, #1072, .T. ) ;
#351 = PLANE ( 'NONE',  #64 ) ;
#352 = FACE_OUTER_BOUND ( 'NONE', #963, .T. ) ;
#353 = APPLICATION_PROTOCOL_DEFINITION ( 'international standard', 'config_control_design', 1994, #721 ) ;
#354 = ORIENTED_EDGE ( 'NONE', *, *, #41, .F. ) ;
#355 = DIRECTION ( 'NONE',  ( -0.000000000000000000, -0.000000000000000000, -1.000000000000000000 ) ) ;
#356 = EDGE_CURVE ( 'NONE', #691, #448, #874, .T. ) ;
#357 = LINE ( 'NONE', #270, #30 ) ;
#358 = DIRECTION ( 'NONE',  ( -0.000000000000000000, 0.000000000000000000, 1.000000000000000000 ) ) ;
#359 = CARTESIAN_POINT ( 'NONE',  ( -46.05991064488129894, 113.5615686305051497, 1.600999999999999979 ) ) ;
#360 = EDGE_LOOP ( 'NONE', ( #585, #1108, #775, #1117, #1150, #669 ) ) ;
#361 = DIRECTION ( 'NONE',  ( 0.000000000000000000, 0.000000000000000000, -1.000000000000000000 ) ) ;
#362 = AXIS2_PLACEMENT_3D ( 'NONE', #913, #470, #298 ) ;
#363 = PLANE ( 'NONE',  #422 ) ;
#364 = VECTOR ( 'NONE', #543, 1000.000000000000000 ) ;
#365 = CARTESIAN_POINT ( 'NONE',  ( -61.76946456515575079, 118.5702504543442899, 1.600999999999999979 ) ) ;
#366 = CARTESIAN_POINT ( 'NONE',  ( -45.18328049463511320, 112.4695539384695024, 1.600999999999999979 ) ) ;
#367 = VERTEX_POINT ( 'NONE', #79 ) ;
#368 = CARTESIAN_POINT ( 'NONE',  ( -58.34403114534158163, 120.6308532180491824, 1.600000000000000089 ) ) ;
#369 = CARTESIAN_POINT ( 'NONE',  ( -4.494884577999999742, 211.2138574457000004, 1.600000000000000089 ) ) ;
#370 = CARTESIAN_POINT ( 'NONE',  ( 0.000000000000000000, 0.000000000000000000, 1.600000000000000089 ) ) ;
#371 = PERSON_AND_ORGANIZATION ( #189, #140 ) ;
#372 = EDGE_CURVE ( 'NONE', #1114, #190, #755, .T. ) ;
#373 = ORIENTED_EDGE ( 'NONE', *, *, #664, .T. ) ;
#374 = CARTESIAN_POINT ( 'NONE',  ( -55.03628593858111628, 106.5378980340810955, 1.600999999999999979 ) ) ;
#375 = CARTESIAN_POINT ( 'NONE',  ( -55.05454302468238126, 119.9743897182954697, 1.600999999999999979 ) ) ;
#376 = CARTESIAN_POINT ( 'NONE',  ( -57.86646224820889728, 108.4136222723076628, 1.600999999999999979 ) ) ;
#377 = CALENDAR_DATE ( 2021, 29, 7 ) ;
#378 = VERTEX_POINT ( 'NONE', #436 ) ;
#379 = CARTESIAN_POINT ( 'NONE',  ( -49.26719808979645876, 106.3610877222046440, 1.600999999999999979 ) ) ;
#380 = DIRECTION ( 'NONE',  ( -0.000000000000000000, -0.000000000000000000, -1.000000000000000000 ) ) ;
#381 = FACE_BOUND ( 'NONE', #645, .T. ) ;
#382 = DATE_AND_TIME ( #377, #644 ) ;
#383 = CIRCLE ( 'NONE', #172, 1.036678732839843686 ) ;
#384 = AXIS2_PLACEMENT_3D ( 'NONE', #253, #1061, #429 ) ;
#385 = ORIENTED_EDGE ( 'NONE', *, *, #572, .T. ) ;
#386 = DIRECTION ( 'NONE',  ( 0.000000000000000000, -1.000000000000000000, 0.000000000000000000 ) ) ;
#387 = APPROVAL_PERSON_ORGANIZATION ( #650, #1122, #643 ) ;
#388 = EDGE_CURVE ( 'NONE', #190, #428, #1049, .T. ) ;
#389 = DIRECTION ( 'NONE',  ( 0.000000000000000000, 0.000000000000000000, 1.000000000000000000 ) ) ;
#390 = CARTESIAN_POINT ( 'NONE',  ( -23.65119192330000075, 211.2138574457000004, 1.600000000000000089 ) ) ;
#391 = ORIENTED_EDGE ( 'NONE', *, *, #1128, .T. ) ;
#392 = LINE ( 'NONE', #732, #846 ) ;
#393 = CARTESIAN_POINT ( 'NONE',  ( -9.494884578000000630, 0.000000000000000000, -4.000000000000000000 ) ) ;
#394 = EDGE_CURVE ( 'NONE', #771, #1104, #247, .T. ) ;
#395 = DIRECTION ( 'NONE',  ( -0.000000000000000000, -0.000000000000000000, -1.000000000000000000 ) ) ;
#396 = CARTESIAN_POINT ( 'NONE',  ( -61.76946456515575079, 118.5702504543442899, 1.600999999999999979 ) ) ;
#397 = CARTESIAN_POINT ( 'NONE',  ( -154.4240531977000046, 198.5890574457000071, 1.600000000000000089 ) ) ;
#398 = DIRECTION ( 'NONE',  ( -1.000000000000000000, 0.000000000000000000, 0.000000000000000000 ) ) ;
#399 = ORIENTED_EDGE ( 'NONE', *, *, #592, .F. ) ;
#400 = DIRECTION ( 'NONE',  ( -0.000000000000000000, 0.000000000000000000, 1.000000000000000000 ) ) ;
#401 = VECTOR ( 'NONE', #1022, 1000.000000000000000 ) ;
#402 = LOCAL_TIME ( 11, 10, 43.00000000000000000, #25 ) ;
#403 = DIRECTION ( 'NONE',  ( 0.000000000000000000, -1.000000000000000000, 0.000000000000000000 ) ) ;
#404 = CARTESIAN_POINT ( 'NONE',  ( -46.38378661078900933, 117.7426632156220734, 1.600000000000000089 ) ) ;
#405 = ORIENTED_EDGE ( 'NONE', *, *, #431, .T. ) ;
#406 = CARTESIAN_POINT ( 'NONE',  ( -47.63325079088435388, 120.7387816069488906, 1.600000000000000089 ) ) ;
#407 = ADVANCED_FACE ( 'NONE', ( #799 ), #351, .T. ) ;
#408 = ORIENTED_EDGE ( 'NONE', *, *, #304, .F. ) ;
#409 = CARTESIAN_POINT ( 'NONE',  ( -58.34403114534158163, 120.6308532180491824, 1.600000000000000089 ) ) ;
#410 = CARTESIAN_POINT ( 'NONE',  ( -45.88638601185805044, 115.9138118885420425, 1.600999999999999979 ) ) ;
#411 = VERTEX_POINT ( 'NONE', #171 ) ;
#412 = CARTESIAN_POINT ( 'NONE',  ( -46.05991064488129894, 113.5615686305051497, 1.600000000000000089 ) ) ;
#413 = ORIENTED_EDGE ( 'NONE', *, *, #1008, .F. ) ;
#414 = CC_DESIGN_DATE_AND_TIME_ASSIGNMENT ( #814, #15, ( #670 ) ) ;
#415 = B_SPLINE_CURVE_WITH_KNOTS ( 'NONE', 3,
 ( #767, #477, #500, #858, #139, #665, #836, #133, #47, #220, #929, #123, #39 ),
 .UNSPECIFIED., .F., .F.,
 ( 4, 3, 3, 3, 4 ),
 ( 4.000000000000000000, 5.000000000000000000, 6.000000000000000000, 7.000000000000000000, 8.000000000000000000 ),
 .UNSPECIFIED. ) ;
#416 = DIRECTION ( 'NONE',  ( 1.000000000000000000, -0.000000000000000000, 0.000000000000000000 ) ) ;
#417 = CARTESIAN_POINT ( 'NONE',  ( -45.88638601185805044, 115.9138118885420425, 1.600999999999999979 ) ) ;
#418 = VERTEX_POINT ( 'NONE', #69 ) ;
#419 = CARTESIAN_POINT ( 'NONE',  ( 0.000000000000000000, 201.5890574457000071, 1.600000000000000089 ) ) ;
#420 = AXIS2_PLACEMENT_3D ( 'NONE', #54, #579, #321 ) ;
#421 = AXIS2_PLACEMENT_3D ( 'NONE', #404, #666, #60 ) ;
#422 = AXIS2_PLACEMENT_3D ( 'NONE', #804, #5, #892 ) ;
#423 = EDGE_CURVE ( 'NONE', #239, #882, #711, .T. ) ;
#424 = CARTESIAN_POINT ( 'NONE',  ( -157.4240531977000046, 105.4022385418000027, 1.600000000000000089 ) ) ;
#425 = EDGE_LOOP ( 'NONE', ( #827, #769, #489, #758 ) ) ;
#426 = DIRECTION ( 'NONE',  ( 1.000000000000000000, 0.000000000000000000, 0.000000000000000000 ) ) ;
#427 = CARTESIAN_POINT ( 'NONE',  ( -60.80983809632563464, 121.3437378753012013, 1.600999999999999979 ) ) ;
#428 = VERTEX_POINT ( 'NONE', #611 ) ;
#429 = DIRECTION ( 'NONE',  ( 0.000000000000000000, -0.000000000000000000, -1.000000000000000000 ) ) ;
#430 = VERTEX_POINT ( 'NONE', #687 ) ;
#431 = EDGE_CURVE ( 'NONE', #183, #731, #357, .T. ) ;
#432 = ORIENTED_EDGE ( 'NONE', *, *, #610, .T. ) ;
#433 = DIRECTION ( 'NONE',  ( -0.000000000000000000, -0.000000000000000000, -1.000000000000000000 ) ) ;
#434 = VECTOR ( 'NONE', #1080, 1000.000000000000000 ) ;
#435 = VECTOR ( 'NONE', #86, 1000.000000000000000 ) ;
#436 = CARTESIAN_POINT ( 'NONE',  ( -55.05454302468238126, 119.9743897182954697, 1.600000000000000089 ) ) ;
#437 = PLANE ( 'NONE',  #292 ) ;
#438 = CARTESIAN_POINT ( 'NONE',  ( -51.85617643632263452, 124.4834666068837663, 1.600999999999999979 ) ) ;
#439 = ORIENTED_EDGE ( 'NONE', *, *, #431, .F. ) ;
#440 = PLANE ( 'NONE',  #981 ) ;
#441 = EDGE_CURVE ( 'NONE', #256, #115, #621, .T. ) ;
#442 = DIRECTION ( 'NONE',  ( -0.000000000000000000, -0.000000000000000000, -1.000000000000000000 ) ) ;
#443 = DIRECTION ( 'NONE',  ( 0.000000000000000000, 0.000000000000000000, 1.000000000000000000 ) ) ;
#444 =( NAMED_UNIT ( * ) SI_UNIT ( $, .STERADIAN. ) SOLID_ANGLE_UNIT ( ) );
#445 = ORIENTED_EDGE ( 'NONE', *, *, #835, .F. ) ;
#446 = CARTESIAN_POINT ( 'NONE',  ( -56.09122175752222006, 119.9743897182954697, 1.600999999999999979 ) ) ;
#447 = DIRECTION ( 'NONE',  ( -0.000000000000000000, -0.000000000000000000, -1.000000000000000000 ) ) ;
#448 = VERTEX_POINT ( 'NONE', #424 ) ;
#449 = ORIENTED_EDGE ( 'NONE', *, *, #238, .F. ) ;
#450 = DIRECTION ( 'NONE',  ( -1.000000000000000000, 0.000000000000000000, 0.000000000000000000 ) ) ;
#451 = VECTOR ( 'NONE', #165, 1000.000000000000000 ) ;
#452 = LINE ( 'NONE', #92, #794 ) ;
#453 = ADVANCED_FACE ( 'NONE', ( #779 ), #1136, .T. ) ;
#454 = CARTESIAN_POINT ( 'NONE',  ( -58.74041932659848442, 119.8291725896543767, 1.600000000000000089 ) ) ;
#455 = COORDINATED_UNIVERSAL_TIME_OFFSET ( 8, 0, .AHEAD. ) ;
#456 = ORIENTED_EDGE ( 'NONE', *, *, #780, .F. ) ;
#457 = PLANE ( 'NONE',  #314 ) ;
#458 = FACE_OUTER_BOUND ( 'NONE', #931, .T. ) ;
#459 = DIRECTION ( 'NONE',  ( 1.000000000000000000, 0.000000000000000000, -0.000000000000000000 ) ) ;
#460 = CC_DESIGN_PERSON_AND_ORGANIZATION_ASSIGNMENT ( #188, #1007, ( #670 ) ) ;
#461 = COORDINATED_UNIVERSAL_TIME_OFFSET ( 8, 0, .AHEAD. ) ;
#462 = ORIENTED_EDGE ( 'NONE', *, *, #1095, .T. ) ;
#463 = CARTESIAN_POINT ( 'NONE',  ( -45.18328049463511320, 112.4695539384695024, 1.600000000000000089 ) ) ;
#464 = LINE ( 'NONE', #469, #867 ) ;
#465 = CARTESIAN_POINT ( 'NONE',  ( -44.12769712112957166, 111.7726007538303605, 1.600999999999999979 ) ) ;
#466 = PERSON_AND_ORGANIZATION ( #189, #140 ) ;
#467 = CARTESIAN_POINT ( 'NONE',  ( 0.000000000000000000, 105.4022385418000027, 0.000000000000000000 ) ) ;
#468 = ADVANCED_FACE ( 'NONE', ( #870 ), #517, .F. ) ;
#469 = CARTESIAN_POINT ( 'NONE',  ( -45.18328049463511320, 112.4695539384695024, 1.600999999999999979 ) ) ;
#470 = DIRECTION ( 'NONE',  ( -0.000000000000000000, 0.000000000000000000, 1.000000000000000000 ) ) ;
#471 = AXIS2_PLACEMENT_3D ( 'NONE', #574, #1038, #762 ) ;
#472 = AXIS2_PLACEMENT_3D ( 'NONE', #939, #403, #224 ) ;
#473 = EDGE_LOOP ( 'NONE', ( #569, #848, #483, #3 ) ) ;
#474 = CARTESIAN_POINT ( 'NONE',  ( -45.18328049463511320, 112.4695539384695024, 1.600999999999999979 ) ) ;
#475 = VECTOR ( 'NONE', #525, 1000.000000000000000 ) ;
#476 = ADVANCED_FACE ( 'NONE', ( #73 ), #1053, .F. ) ;
#477 = CARTESIAN_POINT ( 'NONE',  ( -44.86781044079732084, 112.1898104436222496, 1.600000000000000089 ) ) ;
#478 = PLANE ( 'NONE',  #420 ) ;
#479 = ORIENTED_EDGE ( 'NONE', *, *, #1013, .F. ) ;
#480 = CARTESIAN_POINT ( 'NONE',  ( -43.75076237885523511, 108.9550582221971808, 1.600999999999999979 ) ) ;
#481 = DIRECTION ( 'NONE',  ( 0.000000000000000000, -1.000000000000000000, 0.000000000000000000 ) ) ;
#482 = CARTESIAN_POINT ( 'NONE',  ( 0.000000000000000000, 198.5890574457000071, 1.600000000000000089 ) ) ;
#483 = ORIENTED_EDGE ( 'NONE', *, *, #766, .F. ) ;
#484 = FACE_OUTER_BOUND ( 'NONE', #1132, .T. ) ;
#485 = ORIENTED_EDGE ( 'NONE', *, *, #890, .F. ) ;
#486 = FACE_OUTER_BOUND ( 'NONE', #1026, .T. ) ;
#487 = CARTESIAN_POINT ( 'NONE',  ( -140.4240531977000046, 184.5890574457000071, 1.600000000000000089 ) ) ;
#488 = EDGE_CURVE ( 'NONE', #760, #595, #701, .T. ) ;
#489 = ORIENTED_EDGE ( 'NONE', *, *, #604, .T. ) ;
#490 = CARTESIAN_POINT ( 'NONE',  ( -48.92314898865605954, 109.3305439596021102, 1.600999999999999979 ) ) ;
#491 = VECTOR ( 'NONE', #532, 1000.000000000000000 ) ;
#492 = ORIENTED_EDGE ( 'NONE', *, *, #1116, .F. ) ;
#493 = AXIS2_PLACEMENT_3D ( 'NONE', #1121, #400, #426 ) ;
#494 = CARTESIAN_POINT ( 'NONE',  ( -157.4240531977000046, 201.5890574457000071, 0.000000000000000000 ) ) ;
#495 = B_SPLINE_SURFACE_WITH_KNOTS ( 'NONE', 3, 1, ( 
 ( #596, #855 ),
 ( #955, #152 ),
 ( #759, #249 ),
 ( #689, #1051 ),
 ( #951, #1027 ),
 ( #1033, #866 ),
 ( #850, #62 ),
 ( #601, #1126 ),
 ( #961, #43 ),
 ( #157, #136 ) ),
 .UNSPECIFIED., .F., .F., .F.,
 ( 4, 3, 3, 4 ),
 ( 2, 2 ),
 ( 0.000000000000000000, 1.000000000000000000, 2.000000000000000000, 3.000000000000000000 ),
 ( 0.000000000000000000, 1.000000000000000000 ),
 .UNSPECIFIED. ) ;
#496 = FACE_OUTER_BOUND ( 'NONE', #504, .T. ) ;
#497 = EDGE_LOOP ( 'NONE', ( #842, #526, #667, #198 ) ) ;
#498 = CARTESIAN_POINT ( 'NONE',  ( -56.42863446577408837, 124.5931678412539583, 1.600000000000000089 ) ) ;
#499 = EDGE_LOOP ( 'NONE', ( #84, #311 ) ) ;
#500 = CARTESIAN_POINT ( 'NONE',  ( -44.18360620930394589, 112.1905145626920444, 1.600000000000000089 ) ) ;
#501 = FACE_OUTER_BOUND ( 'NONE', #618, .T. ) ;
#502 = ORIENTED_EDGE ( 'NONE', *, *, #22, .F. ) ;
#503 = FACE_OUTER_BOUND ( 'NONE', #246, .T. ) ;
#504 = EDGE_LOOP ( 'NONE', ( #938, #449, #1041, #902 ) ) ;
#505 = LINE ( 'NONE', #530, #451 ) ;
#506 = EDGE_LOOP ( 'NONE', ( #479, #1003, #348, #74 ) ) ;
#507 = CARTESIAN_POINT ( 'NONE',  ( 0.000000000000000000, 213.4138574456999891, 0.000000000000000000 ) ) ;
#508 = VECTOR ( 'NONE', #203, 1000.000000000000000 ) ;
#509 = ORIENTED_EDGE ( 'NONE', *, *, #835, .T. ) ;
#510 = EDGE_CURVE ( 'NONE', #651, #946, #1084, .T. ) ;
#511 = AXIS2_PLACEMENT_3D ( 'NONE', #148, #764, #232 ) ;
#512 = DIRECTION ( 'NONE',  ( -0.000000000000000000, 0.000000000000000000, 1.000000000000000000 ) ) ;
#513 = B_SPLINE_SURFACE_WITH_KNOTS ( 'NONE', 3, 1, ( 
 ( #583, #947 ),
 ( #128, #409 ),
 ( #657, #320 ),
 ( #671, #933 ),
 ( #564, #1035 ),
 ( #214, #235 ),
 ( #589, #761 ) ),
 .UNSPECIFIED., .F., .F., .F.,
 ( 4, 3, 4 ),
 ( 2, 2 ),
 ( 0.000000000000000000, 1.000000000000000000, 2.000000000000000000 ),
 ( 0.000000000000000000, 1.000000000000000000 ),
 .UNSPECIFIED. ) ;
#514 = DIRECTION ( 'NONE',  ( 1.000000000000000000, 0.000000000000000000, 0.000000000000000000 ) ) ;
#515 = ORIENTED_EDGE ( 'NONE', *, *, #1036, .F. ) ;
#516 = DESIGN_CONTEXT ( 'detailed design', #121, 'design' ) ;
#517 = PLANE ( 'NONE',  #550 ) ;
#518 = VERTEX_POINT ( 'NONE', #549 ) ;
#519 = CARTESIAN_POINT ( 'NONE',  ( -53.13630642531502701, 115.9138118885420425, 1.600999999999999979 ) ) ;
#520 = ORIENTED_EDGE ( 'NONE', *, *, #648, .F. ) ;
#521 = FACE_OUTER_BOUND ( 'NONE', #473, .T. ) ;
#522 = B_SPLINE_SURFACE_WITH_KNOTS ( 'NONE', 3, 1, ( 
 ( #474, #463 ),
 ( #206, #553 ),
 ( #570, #217 ),
 ( #312, #116 ),
 ( #480, #1004 ),
 ( #379, #301 ),
 ( #107, #745 ),
 ( #1010, #637 ),
 ( #374, #916 ),
 ( #663, #911 ),
 ( #749, #1105 ),
 ( #306, #223 ),
 ( #396, #294 ) ),
 .UNSPECIFIED., .F., .F., .F.,
 ( 4, 3, 3, 3, 4 ),
 ( 2, 2 ),
 ( 4.000000000000000000, 5.000000000000000000, 6.000000000000000000, 7.000000000000000000, 8.000000000000000000 ),
 ( 0.000000000000000000, 1.000000000000000000 ),
 .UNSPECIFIED. ) ;
#523 = CARTESIAN_POINT ( 'NONE',  ( -140.4240531977000046, 198.5890574457000071, 1.600000000000000089 ) ) ;
#524 = EDGE_CURVE ( 'NONE', #428, #595, #452, .T. ) ;
#525 = DIRECTION ( 'NONE',  ( -0.000000000000000000, -0.000000000000000000, -1.000000000000000000 ) ) ;
#526 = ORIENTED_EDGE ( 'NONE', *, *, #1116, .T. ) ;
#527 = LINE ( 'NONE', #1071, #401 ) ;
#528 = AXIS2_PLACEMENT_3D ( 'NONE', #859, #395, #398 ) ;
#529 = VECTOR ( 'NONE', #481, 1000.000000000000000 ) ;
#530 = CARTESIAN_POINT ( 'NONE',  ( -9.494884578000000630, 0.000000000000000000, 0.000000000000000000 ) ) ;
#531 = APPROVAL_PERSON_ORGANIZATION ( #371, #829, #915 ) ;
#532 = DIRECTION ( 'NONE',  ( -0.000000000000000000, -0.000000000000000000, -1.000000000000000000 ) ) ;
#533 = CARTESIAN_POINT ( 'NONE',  ( -4.494884577999999742, 0.000000000000000000, 0.000000000000000000 ) ) ;
#534 = PRODUCT_RELATED_PRODUCT_CATEGORY ( 'detail', '', ( #158 ) ) ;
#535 = VERTEX_POINT ( 'NONE', #283 ) ;
#536 = DIRECTION ( 'NONE',  ( 0.000000000000000000, -0.000000000000000000, -1.000000000000000000 ) ) ;
#537 = LINE ( 'NONE', #369, #810 ) ;
#538 = CARTESIAN_POINT ( 'NONE',  ( 0.000000000000000000, 211.2138574457000004, 0.000000000000000000 ) ) ;
#539 = DIRECTION ( 'NONE',  ( 0.000000000000000000, -0.000000000000000000, -1.000000000000000000 ) ) ;
#540 = ORIENTED_EDGE ( 'NONE', *, *, #1046, .F. ) ;
#541 = LINE ( 'NONE', #269, #567 ) ;
#542 = ADVANCED_FACE ( 'NONE', ( #458 ), #363, .F. ) ;
#543 = DIRECTION ( 'NONE',  ( 0.000000000000000000, -1.000000000000000000, 0.000000000000000000 ) ) ;
#544 = CARTESIAN_POINT ( 'NONE',  ( -44.86781044079732084, 112.1898104436222496, 1.600999999999999979 ) ) ;
#545 = PERSON_AND_ORGANIZATION ( #189, #140 ) ;
#546 = ORIENTED_EDGE ( 'NONE', *, *, #388, .F. ) ;
#547 = CARTESIAN_POINT ( 'NONE',  ( -58.74041932659848442, 119.8291725896543767, 1.600000000000000089 ) ) ;
#548 = VECTOR ( 'NONE', #1138, 1000.000000000000000 ) ;
#549 = CARTESIAN_POINT ( 'NONE',  ( -154.4240531977000046, 184.5890574457000071, 1.600000000000000089 ) ) ;
#550 = AXIS2_PLACEMENT_3D ( 'NONE', #1141, #340, #345 ) ;
#551 = CARTESIAN_POINT ( 'NONE',  ( 0.000000000000000000, 211.2138574457000004, 0.000000000000000000 ) ) ;
#552 = APPROVAL_ROLE ( '' ) ;
#553 = CARTESIAN_POINT ( 'NONE',  ( -44.86781044079732084, 112.1898104436222496, 1.600000000000000089 ) ) ;
#554 = LINE ( 'NONE', #812, #718 ) ;
#555 = PLANE ( 'NONE',  #1129 ) ;
#556 = EDGE_CURVE ( 'NONE', #1082, #378, #278, .T. ) ;
#557 = DIRECTION ( 'NONE',  ( -0.000000000000000000, -0.000000000000000000, -1.000000000000000000 ) ) ;
#558 = CARTESIAN_POINT ( 'NONE',  ( -140.4240531977000046, 0.000000000000000000, 1.600000000000000089 ) ) ;
#559 = CARTESIAN_POINT ( 'NONE',  ( -49.78265790893897247, 108.9855480266812435, 1.600999999999999979 ) ) ;
#560 = DATE_AND_TIME ( #285, #402 ) ;
#561 = EDGE_CURVE ( 'NONE', #518, #266, #1079, .T. ) ;
#562 = CARTESIAN_POINT ( 'NONE',  ( -18.65119192330000075, 0.000000000000000000, 0.000000000000000000 ) ) ;
#563 = B_SPLINE_CURVE_WITH_KNOTS ( 'NONE', 3,
 ( #782, #1139, #333, #498, #668, #328, #240, #406, #323, #319, #412, #1047, #674 ),
 .UNSPECIFIED., .F., .F.,
 ( 4, 3, 3, 3, 4 ),
 ( 0.000000000000000000, 1.000000000000000000, 2.000000000000000000, 3.000000000000000000, 4.000000000000000000 ),
 .UNSPECIFIED. ) ;
#564 = CARTESIAN_POINT ( 'NONE',  ( -50.07375432950292549, 123.8780893867788677, 1.600999999999999979 ) ) ;
#565 = AXIS2_PLACEMENT_3D ( 'NONE', #24, #7, #1001 ) ;
#566 = CARTESIAN_POINT ( 'NONE',  ( -58.74041932659848442, 119.8291725896543767, 1.600999999999999979 ) ) ;
#567 = VECTOR ( 'NONE', #973, 1000.000000000000000 ) ;
#568 = VECTOR ( 'NONE', #349, 1000.000000000000000 ) ;
#569 = ORIENTED_EDGE ( 'NONE', *, *, #1013, .T. ) ;
#570 = CARTESIAN_POINT ( 'NONE',  ( -44.18360620930394589, 112.1905145626920444, 1.600999999999999979 ) ) ;
#571 = VECTOR ( 'NONE', #861, 1000.000000000000000 ) ;
#572 = EDGE_CURVE ( 'NONE', #26, #137, #537, .T. ) ;
#573 = FACE_OUTER_BOUND ( 'NONE', #163, .T. ) ;
#574 = CARTESIAN_POINT ( 'NONE',  ( 0.000000000000000000, 0.000000000000000000, -4.000000000000000000 ) ) ;
#575 = ORIENTED_EDGE ( 'NONE', *, *, #41, .T. ) ;
#576 = PLANE ( 'NONE',  #998 ) ;
#577 = EDGE_CURVE ( 'NONE', #651, #681, #917, .T. ) ;
#578 = CARTESIAN_POINT ( 'NONE',  ( -57.12790049036206597, 119.9743897182954697, 1.600999999999999979 ) ) ;
#579 = DIRECTION ( 'NONE',  ( 0.000000000000000000, -1.000000000000000000, 0.000000000000000000 ) ) ;
#580 = ORIENTED_EDGE ( 'NONE', *, *, #928, .F. ) ;
#581 = CARTESIAN_POINT ( 'NONE',  ( -61.76946456515575079, 118.5702504543442899, 1.600000000000000089 ) ) ;
#582 = ORIENTED_EDGE ( 'NONE', *, *, #957, .F. ) ;
#583 = CARTESIAN_POINT ( 'NONE',  ( -58.74041932659848442, 119.8291725896543767, 1.600999999999999979 ) ) ;
#584 = CARTESIAN_POINT ( 'NONE',  ( -23.65119192330000075, 201.5890574457000071, 0.000000000000000000 ) ) ;
#585 = ORIENTED_EDGE ( 'NONE', *, *, #265, .F. ) ;
#586 = FACE_BOUND ( 'NONE', #612, .T. ) ;
#587 = VECTOR ( 'NONE', #97, 1000.000000000000000 ) ;
#588 = ORIENTED_EDGE ( 'NONE', *, *, #881, .T. ) ;
#589 = CARTESIAN_POINT ( 'NONE',  ( -47.72242778463559176, 111.4934745156335794, 1.600999999999999979 ) ) ;
#590 = CARTESIAN_POINT ( 'NONE',  ( -9.494884578000000630, 211.2138574457000004, 0.000000000000000000 ) ) ;
#591 = VERTEX_POINT ( 'NONE', #640 ) ;
#592 = EDGE_CURVE ( 'NONE', #535, #686, #464, .T. ) ;
#593 = CARTESIAN_POINT ( 'NONE',  ( -61.76946456515575079, 118.5702504543442899, 1.600999999999999979 ) ) ;
#594 = LINE ( 'NONE', #129, #1016 ) ;
#595 = VERTEX_POINT ( 'NONE', #201 ) ;
#596 = CARTESIAN_POINT ( 'NONE',  ( -48.92314898865607375, 109.3305439596020676, 1.600999999999999979 ) ) ;
#597 = ADVANCED_FACE ( 'NONE', ( #1000, #302 ), #186, .T. ) ;
#598 = ORIENTED_EDGE ( 'NONE', *, *, #890, .T. ) ;
#599 = DIRECTION ( 'NONE',  ( -1.000000000000000000, 0.000000000000000000, 0.000000000000000000 ) ) ;
#600 = CARTESIAN_POINT ( 'NONE',  ( -23.65119192330000075, 211.2138574457000004, 1.600000000000000089 ) ) ;
#601 = CARTESIAN_POINT ( 'NONE',  ( -57.54160033947397324, 118.3850755765025724, 1.600999999999999979 ) ) ;
#602 = VECTOR ( 'NONE', #1147, 1000.000000000000000 ) ;
#603 = AXIS2_PLACEMENT_3D ( 'NONE', #923, #316, #754 ) ;
#604 = EDGE_CURVE ( 'NONE', #651, #691, #554, .T. ) ;
#605 = CARTESIAN_POINT ( 'NONE',  ( 0.000000000000000000, 105.4022385418000027, 1.600000000000000089 ) ) ;
#606 = CARTESIAN_POINT ( 'NONE',  ( -47.63325079088435388, 120.7387816069488906, 1.600999999999999979 ) ) ;
#607 = CARTESIAN_POINT ( 'NONE',  ( -45.46303573850377688, 112.7176272775063381, 1.600000000000000089 ) ) ;
#608 = ORIENTED_EDGE ( 'NONE', *, *, #849, .F. ) ;
#609 = CARTESIAN_POINT ( 'NONE',  ( -57.67657322421663224, 121.7032199401192685, 1.600000000000000089 ) ) ;
#610 = EDGE_CURVE ( 'NONE', #226, #448, #989, .T. ) ;
#611 = CARTESIAN_POINT ( 'NONE',  ( -52.76554927443196874, 117.3999900399641945, 1.600000000000000089 ) ) ;
#612 = EDGE_LOOP ( 'NONE', ( #42, #862, #228, #153 ) ) ;
#613 = CARTESIAN_POINT ( 'NONE',  ( -47.63325079088435388, 120.7387816069488906, 1.600000000000000089 ) ) ;
#614 = ORIENTED_EDGE ( 'NONE', *, *, #70, .F. ) ;
#615 = LINE ( 'NONE', #889, #924 ) ;
#616 = CARTESIAN_POINT ( 'NONE',  ( -53.13630642531502701, 115.9138118885420425, 1.600999999999999979 ) ) ;
#617 = B_SPLINE_CURVE_WITH_KNOTS ( 'NONE', 3,
 ( #547, #368, #609, #968, #90, #170, #903 ),
 .UNSPECIFIED., .F., .F.,
 ( 4, 3, 4 ),
 ( 0.000000000000000000, 1.000000000000000000, 2.000000000000000000 ),
 .UNSPECIFIED. ) ;
#618 = EDGE_LOOP ( 'NONE', ( #868, #546, #763, #888 ) ) ;
#619 = LINE ( 'NONE', #191, #757 ) ;
#620 = AXIS2_PLACEMENT_3D ( 'NONE', #410, #768, #774 ) ;
#621 = LINE ( 'NONE', #65, #699 ) ;
#622 = LOCAL_TIME ( 11, 10, 43.00000000000000000, #635 ) ;
#623 = CARTESIAN_POINT ( 'NONE',  ( 129.2759494494000307, 105.4022385418000027, 0.000000000000000000 ) ) ;
#624 = CARTESIAN_POINT ( 'NONE',  ( -60.80983809632563464, 121.3437378753012013, 1.600000000000000089 ) ) ;
#625 = EDGE_CURVE ( 'NONE', #151, #411, #899, .T. ) ;
#626 = ORIENTED_EDGE ( 'NONE', *, *, #6, .T. ) ;
#627 = CARTESIAN_POINT ( 'NONE',  ( -57.46762712046380273, 117.6246318211489665, 1.600000000000000089 ) ) ;
#628 = CARTESIAN_POINT ( 'NONE',  ( 0.000000000000000000, 0.000000000000000000, 1.600999999999999979 ) ) ;
#629 = LINE ( 'NONE', #18, #434 ) ;
#630 = DIRECTION ( 'NONE',  ( 0.000000000000000000, 1.000000000000000000, -0.000000000000000000 ) ) ;
#631 = ORIENTED_EDGE ( 'NONE', *, *, #350, .T. ) ;
#632 = CYLINDRICAL_SURFACE ( 'NONE', #777, 1.036678732839843686 ) ;
#633 = CARTESIAN_POINT ( 'NONE',  ( -47.72242778463557755, 111.4934745156335936, 1.600999999999999979 ) ) ;
#634 = LINE ( 'NONE', #14, #196 ) ;
#635 = COORDINATED_UNIVERSAL_TIME_OFFSET ( 8, 0, .AHEAD. ) ;
#636 = ORIENTED_EDGE ( 'NONE', *, *, #1152, .F. ) ;
#637 = CARTESIAN_POINT ( 'NONE',  ( -53.07275031005590904, 106.0756116667682676, 1.600000000000000089 ) ) ;
#638 = EDGE_CURVE ( 'NONE', #715, #1114, #969, .T. ) ;
#639 = CIRCLE ( 'NONE', #1148, 7.249920413456976576 ) ;
#640 = CARTESIAN_POINT ( 'NONE',  ( -23.65119192330000075, 211.2138574457000004, 0.000000000000000000 ) ) ;
#641 = VECTOR ( 'NONE', #442, 1000.000000000000000 ) ;
#642 = LINE ( 'NONE', #551, #508 ) ;
#643 = APPROVAL_ROLE ( '' ) ;
#644 = LOCAL_TIME ( 11, 10, 43.00000000000000000, #204 ) ;
#645 = EDGE_LOOP ( 'NONE', ( #241, #614 ) ) ;
#646 = CARTESIAN_POINT ( 'NONE',  ( -47.72242778463557755, 111.4934745156335936, 1.600999999999999979 ) ) ;
#647 = CARTESIAN_POINT ( 'NONE',  ( -23.65119192330000075, 0.000000000000000000, 1.600000000000000089 ) ) ;
#648 = EDGE_CURVE ( 'NONE', #1052, #300, #17, .T. ) ;
#649 = CARTESIAN_POINT ( 'NONE',  ( -44.18360620930394589, 112.1905145626920444, 1.600999999999999979 ) ) ;
#650 = PERSON_AND_ORGANIZATION ( #189, #140 ) ;
#651 = VERTEX_POINT ( 'NONE', #23 ) ;
#652 = LINE ( 'NONE', #34, #1017 ) ;
#653 = LINE ( 'NONE', #1106, #100 ) ;
#654 = CARTESIAN_POINT ( 'NONE',  ( -9.494884578000000630, 211.2138574457000004, -4.000000000000000000 ) ) ;
#655 = ADVANCED_FACE ( 'NONE', ( #993 ), #741, .T. ) ;
#656 = FACE_OUTER_BOUND ( 'NONE', #89, .T. ) ;
#657 = CARTESIAN_POINT ( 'NONE',  ( -57.67657322421663224, 121.7032199401192685, 1.600999999999999979 ) ) ;
#658 = VECTOR ( 'NONE', #230, 1000.000000000000000 ) ;
#659 = FACE_OUTER_BOUND ( 'NONE', #873, .T. ) ;
#660 = VECTOR ( 'NONE', #720, 1000.000000000000000 ) ;
#661 = APPROVAL_PERSON_ORGANIZATION ( #545, #949, #552 ) ;
#662 = ORIENTED_EDGE ( 'NONE', *, *, #572, .F. ) ;
#663 = CARTESIAN_POINT ( 'NONE',  ( -56.71990595309062400, 107.2785739701671588, 1.600999999999999979 ) ) ;
#664 = EDGE_CURVE ( 'NONE', #860, #222, #1101, .T. ) ;
#665 = CARTESIAN_POINT ( 'NONE',  ( -49.26719808979645876, 106.3610877222046440, 1.600000000000000089 ) ) ;
#666 = DIRECTION ( 'NONE',  ( 0.000000000000000000, -0.000000000000000000, -1.000000000000000000 ) ) ;
#667 = ORIENTED_EDGE ( 'NONE', *, *, #1095, .F. ) ;
#668 = CARTESIAN_POINT ( 'NONE',  ( -54.04470733448581399, 125.0221522996537971, 1.600000000000000089 ) ) ;
#669 = ORIENTED_EDGE ( 'NONE', *, *, #1137, .F. ) ;
#670 = PRODUCT_DEFINITION ( '未知', '', #795, #516 ) ;
#671 = CARTESIAN_POINT ( 'NONE',  ( -56.71519365252617462, 121.9782330748614356, 1.600999999999999979 ) ) ;
#672 = CARTESIAN_POINT ( 'NONE',  ( -23.65119192330000075, 201.5890574457000071, 1.600000000000000089 ) ) ;
#673 = ORIENTED_EDGE ( 'NONE', *, *, #752, .F. ) ;
#674 = CARTESIAN_POINT ( 'NONE',  ( -45.18328049463511320, 112.4695539384695024, 1.600000000000000089 ) ) ;
#675 = PLANE ( 'NONE',  #680 ) ;
#676 = DIRECTION ( 'NONE',  ( 0.000000000000000000, -0.000000000000000000, -1.000000000000000000 ) ) ;
#677 = VERTEX_POINT ( 'NONE', #578 ) ;
#678 = LINE ( 'NONE', #1133, #571 ) ;
#679 = AXIS2_PLACEMENT_3D ( 'NONE', #688, #886, #1149 ) ;
#680 = AXIS2_PLACEMENT_3D ( 'NONE', #393, #416, #773 ) ;
#681 = VERTEX_POINT ( 'NONE', #1011 ) ;
#682 = PLANE ( 'NONE',  #471 ) ;
#683 = ADVANCED_FACE ( 'NONE', ( #844 ), #513, .F. ) ;
#684 = ORIENTED_EDGE ( 'NONE', *, *, #202, .F. ) ;
#685 = LINE ( 'NONE', #507, #12 ) ;
#686 = VERTEX_POINT ( 'NONE', #1111 ) ;
#687 = CARTESIAN_POINT ( 'NONE',  ( -140.4240531977000046, 184.5890574457000071, 0.000000000000000000 ) ) ;
#688 = CARTESIAN_POINT ( 'NONE',  ( -45.88638601185805044, 115.9138118885420425, 1.600000000000000089 ) ) ;
#689 = CARTESIAN_POINT ( 'NONE',  ( -51.60371763489371943, 108.5994135110447019, 1.600999999999999979 ) ) ;
#690 = EDGE_CURVE ( 'NONE', #1082, #677, #1039, .T. ) ;
#691 = VERTEX_POINT ( 'NONE', #145 ) ;
#692 = CARTESIAN_POINT ( 'NONE',  ( -18.65119192330000075, 213.4138574456999891, -4.000000000000000000 ) ) ;
#693 = CARTESIAN_POINT ( 'NONE',  ( -54.04470733448581399, 125.0221522996537971, 1.600999999999999979 ) ) ;
#694 = CARTESIAN_POINT ( 'NONE',  ( -61.76946456515575079, 118.5702504543442899, 1.600999999999999979 ) ) ;
#695 = AXIS2_PLACEMENT_3D ( 'NONE', #103, #459, #109 ) ;
#696 = ORIENTED_EDGE ( 'NONE', *, *, #441, .T. ) ;
#697 = CARTESIAN_POINT ( 'NONE',  ( -64.02707420792904713, 110.8981455881244358, 1.600999999999999979 ) ) ;
#698 = EDGE_CURVE ( 'NONE', #686, #1064, #415, .T. ) ;
#699 = VECTOR ( 'NONE', #958, 1000.000000000000000 ) ;
#700 = AXIS2_PLACEMENT_3D ( 'NONE', #1069, #539, #876 ) ;
#701 = LINE ( 'NONE', #259, #138 ) ;
#702 = DIRECTION ( 'NONE',  ( 1.000000000000000000, 0.000000000000000000, 0.000000000000000000 ) ) ;
#703 = CARTESIAN_POINT ( 'NONE',  ( 0.000000000000000000, 0.000000000000000000, 0.000000000000000000 ) ) ;
#704 = ORIENTED_EDGE ( 'NONE', *, *, #556, .T. ) ;
#705 = LINE ( 'NONE', #1065, #219 ) ;
#706 = DIRECTION ( 'NONE',  ( 1.000000000000000000, 0.000000000000000000, 0.000000000000000000 ) ) ;
#707 = CARTESIAN_POINT ( 'NONE',  ( -9.494884578000000630, 211.2138574457000004, -4.000000000000000000 ) ) ;
#708 = CARTESIAN_POINT ( 'NONE',  ( -47.32982896432618958, 116.8651006832272685, 1.600000000000000089 ) ) ;
#709 = ORIENTED_EDGE ( 'NONE', *, *, #856, .F. ) ;
#710 = DIRECTION ( 'NONE',  ( 1.000000000000000000, -0.000000000000000000, 0.000000000000000000 ) ) ;
#711 = LINE ( 'NONE', #692, #905 ) ;
#712 = EDGE_CURVE ( 'NONE', #946, #94, #1118, .T. ) ;
#713 = DIRECTION ( 'NONE',  ( -0.000000000000000000, -0.000000000000000000, -1.000000000000000000 ) ) ;
#714 = LINE ( 'NONE', #694, #475 ) ;
#715 = VERTEX_POINT ( 'NONE', #1018 ) ;
#716 = CARTESIAN_POINT ( 'NONE',  ( -51.60371763489371943, 108.5994135110447019, 1.600000000000000089 ) ) ;
#717 = AXIS2_PLACEMENT_3D ( 'NONE', #482, #837, #676 ) ;
#718 = VECTOR ( 'NONE', #1096, 1000.000000000000000 ) ;
#719 = VECTOR ( 'NONE', #770, 1000.000000000000000 ) ;
#720 = DIRECTION ( 'NONE',  ( -1.000000000000000000, 0.000000000000000000, 0.000000000000000000 ) ) ;
#721 = APPLICATION_CONTEXT ( 'configuration controlled 3d designs of mechanical parts and assemblies' ) ;
#722 = SECURITY_CLASSIFICATION ( '', '', #104 ) ;
#723 = CARTESIAN_POINT ( 'NONE',  ( -56.71990595309062400, 107.2785739701671588, 1.600999999999999979 ) ) ;
#724 = ADVANCED_FACE ( 'NONE', ( #486 ), #229, .T. ) ;
#725 = VERTEX_POINT ( 'NONE', #59 ) ;
#726 = CARTESIAN_POINT ( 'NONE',  ( -50.67796198116474926, 108.6268770753913202, 1.600000000000000089 ) ) ;
#727 = MANIFOLD_SOLID_BREP ( '凸台-拉伸3', #118 ) ;
#728 = CARTESIAN_POINT ( 'NONE',  ( -50.07375432950292549, 123.8780893867788677, 1.600999999999999979 ) ) ;
#729 = DIRECTION ( 'NONE',  ( -0.000000000000000000, 0.000000000000000000, 1.000000000000000000 ) ) ;
#730 = APPROVAL_STATUS ( 'not_yet_approved' ) ;
#731 = VERTEX_POINT ( 'NONE', #494 ) ;
#732 = CARTESIAN_POINT ( 'NONE',  ( 0.000000000000000000, 213.4138574456999891, -4.000000000000000000 ) ) ;
#733 = ADVANCED_FACE ( 'NONE', ( #852 ), #1123, .F. ) ;
#734 = CARTESIAN_POINT ( 'NONE',  ( 129.2759494494000307, 201.5890574457000071, 1.600000000000000089 ) ) ;
#735 = PLANE ( 'NONE',  #565 ) ;
#736 = APPROVAL_DATE_TIME ( #560, #829 ) ;
#737 = ORIENTED_EDGE ( 'NONE', *, *, #821, .F. ) ;
#738 = CARTESIAN_POINT ( 'NONE',  ( -157.4240531977000046, 0.000000000000000000, 0.000000000000000000 ) ) ;
#739 = ADVANCED_FACE ( 'NONE', ( #573 ), #675, .T. ) ;
#740 = AXIS2_PLACEMENT_3D ( 'NONE', #948, #134, #853 ) ;
#741 = PLANE ( 'NONE',  #742 ) ;
#742 = AXIS2_PLACEMENT_3D ( 'NONE', #647, #1005, #208 ) ;
#743 = CARTESIAN_POINT ( 'NONE',  ( -43.75076237885523511, 108.9550582221971808, 1.600999999999999979 ) ) ;
#744 = APPROVAL_DATE_TIME ( #382, #1122 ) ;
#745 = CARTESIAN_POINT ( 'NONE',  ( -51.20719370783133684, 106.2155576481060422, 1.600000000000000089 ) ) ;
#746 = CARTESIAN_POINT ( 'NONE',  ( -58.74041932659848442, 119.8291725896543767, 1.600999999999999979 ) ) ;
#747 = CARTESIAN_POINT ( 'NONE',  ( -45.18328049463511320, 112.4695539384695024, 1.600999999999999979 ) ) ;
#748 = ORIENTED_EDGE ( 'NONE', *, *, #698, .F. ) ;
#749 = CARTESIAN_POINT ( 'NONE',  ( -61.33896801495502871, 109.3106406402155102, 1.600999999999999979 ) ) ;
#750 = CARTESIAN_POINT ( 'NONE',  ( -57.12790049036206597, 119.9743897182954697, 1.600999999999999979 ) ) ;
#751 = LINE ( 'NONE', #1031, #658 ) ;
#752 = EDGE_CURVE ( 'NONE', #677, #790, #840, .T. ) ;
#753 = CARTESIAN_POINT ( 'NONE',  ( -9.494884578000000630, 213.4138574456999891, -4.000000000000000000 ) ) ;
#754 = DIRECTION ( 'NONE',  ( 1.000000000000000000, 0.000000000000000000, 0.000000000000000000 ) ) ;
#755 = CIRCLE ( 'NONE', #45, 6.390956078739781887 ) ;
#756 = CARTESIAN_POINT ( 'NONE',  ( -56.09122175752222006, 119.9743897182954697, 1.600999999999999979 ) ) ;
#757 = VECTOR ( 'NONE', #11, 1000.000000000000000 ) ;
#758 = ORIENTED_EDGE ( 'NONE', *, *, #127, .T. ) ;
#759 = CARTESIAN_POINT ( 'NONE',  ( -50.67796198116474926, 108.6268770753913202, 1.600999999999999979 ) ) ;
#760 = VERTEX_POINT ( 'NONE', #1024 ) ;
#761 = CARTESIAN_POINT ( 'NONE',  ( -47.72242778463559176, 111.4934745156335794, 1.600000000000000089 ) ) ;
#762 = DIRECTION ( 'NONE',  ( 1.000000000000000000, 0.000000000000000000, 0.000000000000000000 ) ) ;
#763 = ORIENTED_EDGE ( 'NONE', *, *, #372, .F. ) ;
#764 = DIRECTION ( 'NONE',  ( 0.000000000000000000, -0.000000000000000000, -1.000000000000000000 ) ) ;
#765 = ORIENTED_EDGE ( 'NONE', *, *, #592, .T. ) ;
#766 = EDGE_CURVE ( 'NONE', #1052, #239, #653, .T. ) ;
#767 = CARTESIAN_POINT ( 'NONE',  ( -45.18328049463511320, 112.4695539384695024, 1.600000000000000089 ) ) ;
#768 = DIRECTION ( 'NONE',  ( -0.000000000000000000, -0.000000000000000000, -1.000000000000000000 ) ) ;
#769 = ORIENTED_EDGE ( 'NONE', *, *, #510, .F. ) ;
#770 = DIRECTION ( 'NONE',  ( 0.000000000000000000, -1.000000000000000000, 0.000000000000000000 ) ) ;
#771 = VERTEX_POINT ( 'NONE', #397 ) ;
#772 = ADVANCED_FACE ( 'NONE', ( #78 ), #632, .T. ) ;
#773 = DIRECTION ( 'NONE',  ( 0.000000000000000000, 0.000000000000000000, -1.000000000000000000 ) ) ;
#774 = DIRECTION ( 'NONE',  ( -1.000000000000000000, 0.000000000000000000, 0.000000000000000000 ) ) ;
#775 = ORIENTED_EDGE ( 'NONE', *, *, #638, .T. ) ;
#776 = FACE_OUTER_BOUND ( 'NONE', #979, .T. ) ;
#777 = AXIS2_PLACEMENT_3D ( 'NONE', #446, #878, #450 ) ;
#778 = ORIENTED_EDGE ( 'NONE', *, *, #350, .F. ) ;
#779 = FACE_OUTER_BOUND ( 'NONE', #506, .T. ) ;
#780 = EDGE_CURVE ( 'NONE', #190, #760, #798, .T. ) ;
#781 = ORIENTED_EDGE ( 'NONE', *, *, #58, .T. ) ;
#782 = CARTESIAN_POINT ( 'NONE',  ( -61.76946456515575079, 118.5702504543442899, 1.600000000000000089 ) ) ;
#783 = ORIENTED_EDGE ( 'NONE', *, *, #849, .T. ) ;
#784 = DIRECTION ( 'NONE',  ( 0.000000000000000000, -0.000000000000000000, -1.000000000000000000 ) ) ;
#785 = LINE ( 'NONE', #1153, #548 ) ;
#786 = EDGE_CURVE ( 'NONE', #256, #183, #277, .T. ) ;
#787 = CARTESIAN_POINT ( 'NONE',  ( -56.42863446577408837, 124.5931678412539583, 1.600999999999999979 ) ) ;
#788 = ORIENTED_EDGE ( 'NONE', *, *, #324, .F. ) ;
#789 = DIRECTION ( 'NONE',  ( -0.000000000000000000, -0.000000000000000000, -1.000000000000000000 ) ) ;
#790 = VERTEX_POINT ( 'NONE', #1058 ) ;
#791 = CARTESIAN_POINT ( 'NONE',  ( -46.22499379731603852, 113.9910115931604082, 1.600999999999999979 ) ) ;
#792 = ORIENTED_EDGE ( 'NONE', *, *, #928, .T. ) ;
#793 = CARTESIAN_POINT ( 'NONE',  ( -45.88638601185805044, 115.9138118885420425, 1.600999999999999979 ) ) ;
#794 = VECTOR ( 'NONE', #907, 1000.000000000000000 ) ;
#795 = PRODUCT_DEFINITION_FORMATION_WITH_SPECIFIED_SOURCE ( '任何', '', #158, .NOT_KNOWN. ) ;
#796 = DIRECTION ( 'NONE',  ( 1.000000000000000000, 0.000000000000000000, 0.000000000000000000 ) ) ;
#797 = ORIENTED_EDGE ( 'NONE', *, *, #1066, .T. ) ;
#798 = LINE ( 'NONE', #697, #275 ) ;
#799 = FACE_OUTER_BOUND ( 'NONE', #1140, .T. ) ;
#800 = ORIENTED_EDGE ( 'NONE', *, *, #524, .T. ) ;
#801 = ORIENTED_EDGE ( 'NONE', *, *, #488, .F. ) ;
#802 = CARTESIAN_POINT ( 'NONE',  ( -49.78265790893897247, 108.9855480266812435, 1.600000000000000089 ) ) ;
#803 = ADVANCED_FACE ( 'NONE', ( #521 ), #457, .F. ) ;
#804 = CARTESIAN_POINT ( 'NONE',  ( -4.494884577999999742, 0.000000000000000000, 1.600000000000000089 ) ) ;
#805 = FACE_OUTER_BOUND ( 'NONE', #250, .T. ) ;
#806 = CARTESIAN_POINT ( 'NONE',  ( -61.76946456515575079, 118.5702504543442899, 1.600000000000000089 ) ) ;
#807 = ORIENTED_EDGE ( 'NONE', *, *, #356, .F. ) ;
#808 = LINE ( 'NONE', #1083, #568 ) ;
#809 = CIRCLE ( 'NONE', #679, 7.249920413456976576 ) ;
#810 = VECTOR ( 'NONE', #380, 1000.000000000000000 ) ;
#811 = LOCAL_TIME ( 11, 10, 43.00000000000000000, #461 ) ;
#812 = CARTESIAN_POINT ( 'NONE',  ( 129.2759494494000307, 0.000000000000000000, 1.600000000000000089 ) ) ;
#813 = FACE_BOUND ( 'NONE', #272, .T. ) ;
#814 = DATE_AND_TIME ( #291, #200 ) ;
#815 = ADVANCED_FACE ( 'NONE', ( #257 ), #440, .F. ) ;
#816 = ORIENTED_EDGE ( 'NONE', *, *, #6, .F. ) ;
#817 = CARTESIAN_POINT ( 'NONE',  ( -140.4240531977000046, 198.5890574457000071, 1.600000000000000089 ) ) ;
#818 = CARTESIAN_POINT ( 'NONE',  ( -49.73182044357226772, 115.8410884026272498, 1.600999999999999979 ) ) ;
#819 = CARTESIAN_POINT ( 'NONE',  ( -49.26719808979645876, 106.3610877222046440, 1.600999999999999979 ) ) ;
#820 = CALENDAR_DATE ( 2021, 29, 7 ) ;
#821 = EDGE_CURVE ( 'NONE', #183, #591, #619, .T. ) ;
#822 = EDGE_LOOP ( 'NONE', ( #781, #318, #61, #67 ) ) ;
#823 = DIRECTION ( 'NONE',  ( 0.000000000000000000, -1.000000000000000000, 0.000000000000000000 ) ) ;
#824 = CARTESIAN_POINT ( 'NONE',  ( -18.65119192330000075, 211.2138574457000004, -4.000000000000000000 ) ) ;
#825 = CARTESIAN_POINT ( 'NONE',  ( -46.22499379731603852, 113.9910115931604082, 1.600999999999999979 ) ) ;
#826 = PERSON_AND_ORGANIZATION_ROLE ( 'classification_officer' ) ;
#827 = ORIENTED_EDGE ( 'NONE', *, *, #712, .F. ) ;
#828 = DIRECTION ( 'NONE',  ( -1.000000000000000000, 0.000000000000000000, 0.000000000000000000 ) ) ;
#829 = APPROVAL ( #730, '未指定' ) ;
#830 = AXIS2_PLACEMENT_3D ( 'NONE', #960, #358, #514 ) ;
#831 = DIRECTION ( 'NONE',  ( 1.000000000000000000, 0.000000000000000000, 0.000000000000000000 ) ) ;
#832 = CARTESIAN_POINT ( 'NONE',  ( -57.46762712046380273, 117.6246318211489665, 1.600999999999999979 ) ) ;
#833 = VECTOR ( 'NONE', #386, 1000.000000000000000 ) ;
#834 = LINE ( 'NONE', #753, #252 ) ;
#835 = EDGE_CURVE ( 'NONE', #106, #418, #617, .T. ) ;
#836 = CARTESIAN_POINT ( 'NONE',  ( -51.20719370783133684, 106.2155576481060422, 1.600000000000000089 ) ) ;
#837 = DIRECTION ( 'NONE',  ( 0.000000000000000000, -1.000000000000000000, 0.000000000000000000 ) ) ;
#838 = EDGE_LOOP ( 'NONE', ( #492, #1057, #130, #1050 ) ) ;
#839 = DIRECTION ( 'NONE',  ( 0.000000000000000000, -0.000000000000000000, -1.000000000000000000 ) ) ;
#840 = LINE ( 'NONE', #750, #175 ) ;
#841 = DIRECTION ( 'NONE',  ( -1.000000000000000000, 0.000000000000000000, 0.000000000000000000 ) ) ;
#842 = ORIENTED_EDGE ( 'NONE', *, *, #265, .T. ) ;
#843 = CARTESIAN_POINT ( 'NONE',  ( -154.4240531977000046, 0.000000000000000000, 0.000000000000000000 ) ) ;
#844 = FACE_OUTER_BOUND ( 'NONE', #336, .T. ) ;
#845 = CARTESIAN_POINT ( 'NONE',  ( -154.4240531977000046, 184.5890574457000071, 0.000000000000000000 ) ) ;
#846 = VECTOR ( 'NONE', #1015, 1000.000000000000000 ) ;
#847 = CC_DESIGN_APPROVAL ( #949, ( #722 ) ) ;
#848 = ORIENTED_EDGE ( 'NONE', *, *, #423, .F. ) ;
#849 = EDGE_CURVE ( 'NONE', #715, #106, #615, .T. ) ;
#850 = CARTESIAN_POINT ( 'NONE',  ( -57.46762712046380273, 117.6246318211489665, 1.600999999999999979 ) ) ;
#851 = ORIENTED_EDGE ( 'NONE', *, *, #786, .T. ) ;
#852 = FACE_OUTER_BOUND ( 'NONE', #965, .T. ) ;
#853 = DIRECTION ( 'NONE',  ( 1.000000000000000000, 0.000000000000000000, 0.000000000000000000 ) ) ;
#854 = EDGE_LOOP ( 'NONE', ( #125, #305 ) ) ;
#855 = CARTESIAN_POINT ( 'NONE',  ( -48.92314898865607375, 109.3305439596020676, 1.600000000000000089 ) ) ;
#856 = EDGE_CURVE ( 'NONE', #877, #106, #1043, .T. ) ;
#857 = ORIENTED_EDGE ( 'NONE', *, *, #1060, .F. ) ;
#858 = CARTESIAN_POINT ( 'NONE',  ( -44.12769712112957166, 111.7726007538303605, 1.600000000000000089 ) ) ;
#859 = CARTESIAN_POINT ( 'NONE',  ( -46.38378661078900933, 117.7426632156220734, 1.600999999999999979 ) ) ;
#860 = VERTEX_POINT ( 'NONE', #817 ) ;
#861 = DIRECTION ( 'NONE',  ( 0.000000000000000000, -1.000000000000000000, 0.000000000000000000 ) ) ;
#862 = ORIENTED_EDGE ( 'NONE', *, *, #1081, .T. ) ;
#863 = ADVANCED_FACE ( 'NONE', ( #343 ), #164, .T. ) ;
#864 = CARTESIAN_POINT ( 'NONE',  ( -154.4240531977000046, 198.5890574457000071, 1.600000000000000089 ) ) ;
#865 = ORIENTED_EDGE ( 'NONE', *, *, #1081, .F. ) ;
#866 = CARTESIAN_POINT ( 'NONE',  ( -57.00756169617291391, 112.8951650811925589, 1.600000000000000089 ) ) ;
#867 = VECTOR ( 'NONE', #447, 1000.000000000000000 ) ;
#868 = ORIENTED_EDGE ( 'NONE', *, *, #304, .T. ) ;
#869 = EDGE_CURVE ( 'NONE', #967, #1104, #808, .T. ) ;
#870 = FACE_OUTER_BOUND ( 'NONE', #33, .T. ) ;
#871 = DIRECTION ( 'NONE',  ( -0.000000000000000000, 0.000000000000000000, 1.000000000000000000 ) ) ;
#872 = CARTESIAN_POINT ( 'NONE',  ( -50.05352401226704728, 122.8849621435742847, 1.600000000000000089 ) ) ;
#873 = EDGE_LOOP ( 'NONE', ( #800, #801, #456, #936 ) ) ;
#874 = LINE ( 'NONE', #605, #602 ) ;
#875 = DIRECTION ( 'NONE',  ( -0.000000000000000000, 0.000000000000000000, 1.000000000000000000 ) ) ;
#876 = DIRECTION ( 'NONE',  ( 1.000000000000000000, 1.531358913353601120E-14, 0.000000000000000000 ) ) ;
#877 = VERTEX_POINT ( 'NONE', #85 ) ;
#878 = DIRECTION ( 'NONE',  ( -0.000000000000000000, -0.000000000000000000, -1.000000000000000000 ) ) ;
#879 = CARTESIAN_POINT ( 'NONE',  ( -157.4240531977000046, 105.4022385418000027, 1.600000000000000089 ) ) ;
#880 = ORIENTED_EDGE ( 'NONE', *, *, #143, .T. ) ;
#881 = EDGE_CURVE ( 'NONE', #226, #731, #541, .T. ) ;
#882 = VERTEX_POINT ( 'NONE', #896 ) ;
#883 = CARTESIAN_POINT ( 'NONE',  ( 0.000000000000000000, 201.5890574457000071, 1.600000000000000089 ) ) ;
#884 = VECTOR ( 'NONE', #630, 1000.000000000000000 ) ;
#885 = DIRECTION ( 'NONE',  ( 0.000000000000000000, 0.000000000000000000, 1.000000000000000000 ) ) ;
#886 = DIRECTION ( 'NONE',  ( 0.000000000000000000, -0.000000000000000000, -1.000000000000000000 ) ) ;
#887 = CARTESIAN_POINT ( 'NONE',  ( -59.71039254873078050, 124.0026199191554923, 1.600999999999999979 ) ) ;
#888 = ORIENTED_EDGE ( 'NONE', *, *, #992, .T. ) ;
#889 = CARTESIAN_POINT ( 'NONE',  ( -58.74041932659848442, 119.8291725896543767, 1.600999999999999979 ) ) ;
#890 = EDGE_CURVE ( 'NONE', #771, #518, #705, .T. ) ;
#891 = SHAPE_DEFINITION_REPRESENTATION ( #1142, #207 ) ;
#892 = DIRECTION ( 'NONE',  ( 0.000000000000000000, 0.000000000000000000, 1.000000000000000000 ) ) ;
#893 = DIRECTION ( 'NONE',  ( -1.000000000000000000, 0.000000000000000000, 0.000000000000000000 ) ) ;
#894 = CARTESIAN_POINT ( 'NONE',  ( -50.05352401226704728, 122.8849621435742847, 1.600999999999999979 ) ) ;
#895 = EDGE_LOOP ( 'NONE', ( #1045, #704, #212, #673 ) ) ;
#896 = CARTESIAN_POINT ( 'NONE',  ( -18.65119192330000075, 213.4138574456999891, 0.000000000000000000 ) ) ;
#897 = CC_DESIGN_PERSON_AND_ORGANIZATION_ASSIGNMENT ( #299, #99, ( #158 ) ) ;
#898 = EDGE_CURVE ( 'NONE', #26, #115, #527, .T. ) ;
#899 = LINE ( 'NONE', #193, #587 ) ;
#900 = CARTESIAN_POINT ( 'NONE',  ( -48.92314898865605954, 109.3305439596021102, 1.600999999999999979 ) ) ;
#901 = DATE_AND_TIME ( #820, #811 ) ;
#902 = ORIENTED_EDGE ( 'NONE', *, *, #63, .T. ) ;
#903 = CARTESIAN_POINT ( 'NONE',  ( -47.72242778463557755, 111.4934745156335936, 1.600000000000000089 ) ) ;
#904 = VECTOR ( 'NONE', #346, 1000.000000000000000 ) ;
#905 = VECTOR ( 'NONE', #885, 1000.000000000000000 ) ;
#906 = VECTOR ( 'NONE', #921, 1000.000000000000000 ) ;
#907 = DIRECTION ( 'NONE',  ( -0.8660254037844551389, -0.4999999999999713007, 0.000000000000000000 ) ) ;
#908 = EDGE_CURVE ( 'NONE', #222, #430, #652, .T. ) ;
#909 = FACE_OUTER_BOUND ( 'NONE', #1127, .T. ) ;
#910 = PERSON_AND_ORGANIZATION_ROLE ( 'design_supplier' ) ;
#911 = CARTESIAN_POINT ( 'NONE',  ( -56.71990595309062400, 107.2785739701671588, 1.600000000000000089 ) ) ;
#912 = CARTESIAN_POINT ( 'NONE',  ( -57.67657322421663224, 121.7032199401192685, 1.600999999999999979 ) ) ;
#913 = CARTESIAN_POINT ( 'NONE',  ( 0.000000000000000000, 0.000000000000000000, 1.600000000000000089 ) ) ;
#914 = CC_DESIGN_PERSON_AND_ORGANIZATION_ASSIGNMENT ( #110, #910, ( #795 ) ) ;
#915 = APPROVAL_ROLE ( '' ) ;
#916 = CARTESIAN_POINT ( 'NONE',  ( -55.03628593858111628, 106.5378980340810955, 1.600000000000000089 ) ) ;
#917 = LINE ( 'NONE', #1089, #660 ) ;
#918 = CARTESIAN_POINT ( 'NONE',  ( -50.67796198116474926, 108.6268770753913202, 1.600999999999999979 ) ) ;
#919 = PERSON_AND_ORGANIZATION ( #189, #140 ) ;
#920 = ORIENTED_EDGE ( 'NONE', *, *, #524, .F. ) ;
#921 = DIRECTION ( 'NONE',  ( 0.000000000000000000, 1.000000000000000000, -0.000000000000000000 ) ) ;
#922 = EDGE_CURVE ( 'NONE', #411, #725, #834, .T. ) ;
#923 = CARTESIAN_POINT ( 'NONE',  ( -56.09122175752222006, 119.9743897182954697, 1.600999999999999979 ) ) ;
#924 = VECTOR ( 'NONE', #433, 1000.000000000000000 ) ;
#925 = FACE_OUTER_BOUND ( 'NONE', #327, .T. ) ;
#926 = ORIENTED_EDGE ( 'NONE', *, *, #96, .T. ) ;
#927 = CARTESIAN_POINT ( 'NONE',  ( 0.000000000000000000, 201.5890574457000071, 1.600000000000000089 ) ) ;
#928 = EDGE_CURVE ( 'NONE', #411, #239, #392, .T. ) ;
#929 = CARTESIAN_POINT ( 'NONE',  ( -61.33896801495502871, 109.3106406402155102, 1.600000000000000089 ) ) ;
#930 = CYLINDRICAL_SURFACE ( 'NONE', #528, 6.390956078739781887 ) ;
#931 = EDGE_LOOP ( 'NONE', ( #391, #662, #788, #626 ) ) ;
#932 = CARTESIAN_POINT ( 'NONE',  ( 0.000000000000000000, 201.5890574457000071, 0.000000000000000000 ) ) ;
#933 = CARTESIAN_POINT ( 'NONE',  ( -56.71519365252617462, 121.9782330748614356, 1.600000000000000089 ) ) ;
#934 = ADVANCED_FACE ( 'NONE', ( #126 ), #522, .T. ) ;
#935 = LINE ( 'NONE', #242, #1094 ) ;
#936 = ORIENTED_EDGE ( 'NONE', *, *, #388, .T. ) ;
#937 = CARTESIAN_POINT ( 'NONE',  ( -18.65119192330000075, 211.2138574457000004, -4.000000000000000000 ) ) ;
#938 = ORIENTED_EDGE ( 'NONE', *, *, #556, .F. ) ;
#939 = CARTESIAN_POINT ( 'NONE',  ( 0.000000000000000000, 105.4022385418000027, 1.600000000000000089 ) ) ;
#940 = VECTOR ( 'NONE', #893, 1000.000000000000000 ) ;
#941 = CARTESIAN_POINT ( 'NONE',  ( -4.494884577999999742, 201.5890574457000071, 0.000000000000000000 ) ) ;
#942 = ADVANCED_FACE ( 'NONE', ( #656 ), #576, .F. ) ;
#943 = VECTOR ( 'NONE', #113, 1000.000000000000000 ) ;
#944 = ORIENTED_EDGE ( 'NONE', *, *, #1029, .F. ) ;
#945 = DIRECTION ( 'NONE',  ( -1.000000000000000000, 0.000000000000000000, 0.000000000000000000 ) ) ;
#946 = VERTEX_POINT ( 'NONE', #1088 ) ;
#947 = CARTESIAN_POINT ( 'NONE',  ( -58.74041932659848442, 119.8291725896543767, 1.600000000000000089 ) ) ;
#948 = CARTESIAN_POINT ( 'NONE',  ( -56.09122175752222006, 119.9743897182954697, 1.600999999999999979 ) ) ;
#949 = APPROVAL ( #195, '未指定' ) ;
#950 = EDGE_LOOP ( 'NONE', ( #926, #354, #332, #385 ) ) ;
#951 = CARTESIAN_POINT ( 'NONE',  ( -57.86646224820889728, 108.4136222723076628, 1.600999999999999979 ) ) ;
#952 = ORIENTED_EDGE ( 'NONE', *, *, #394, .F. ) ;
#953 = FACE_OUTER_BOUND ( 'NONE', #950, .T. ) ;
#954 = ORIENTED_EDGE ( 'NONE', *, *, #992, .F. ) ;
#955 = CARTESIAN_POINT ( 'NONE',  ( -49.78265790893897247, 108.9855480266812435, 1.600999999999999979 ) ) ;
#956 = ORIENTED_EDGE ( 'NONE', *, *, #127, .F. ) ;
#957 = EDGE_CURVE ( 'NONE', #946, #216, #38, .T. ) ;
#958 = DIRECTION ( 'NONE',  ( 0.000000000000000000, 1.000000000000000000, -0.000000000000000000 ) ) ;
#959 = AXIS2_PLACEMENT_3D ( 'NONE', #146, #36, #225 ) ;
#960 = CARTESIAN_POINT ( 'NONE',  ( -56.09122175752222006, 119.9743897182954697, 1.600000000000000089 ) ) ;
#961 = CARTESIAN_POINT ( 'NONE',  ( -58.33498330928794928, 119.1269368084533511, 1.600999999999999979 ) ) ;
#962 =( GEOMETRIC_REPRESENTATION_CONTEXT ( 3 ) GLOBAL_UNCERTAINTY_ASSIGNED_CONTEXT ( ( #1059 ) ) GLOBAL_UNIT_ASSIGNED_CONTEXT ( ( #76, #88, #444 ) ) REPRESENTATION_CONTEXT ( 'NONE', 'WORKASPACE' ) );
#963 = EDGE_LOOP ( 'NONE', ( #1062, #72 ) ) ;
#964 = DIRECTION ( 'NONE',  ( 1.000000000000000000, 0.000000000000000000, 0.000000000000000000 ) ) ;
#965 = EDGE_LOOP ( 'NONE', ( #147, #778, #1135, #588 ) ) ;
#966 = CARTESIAN_POINT ( 'NONE',  ( -154.4240531977000046, 198.5890574457000071, 0.000000000000000000 ) ) ;
#967 = VERTEX_POINT ( 'NONE', #131 ) ;
#968 = CARTESIAN_POINT ( 'NONE',  ( -56.71519365252617462, 121.9782330748614356, 1.600000000000000089 ) ) ;
#969 = B_SPLINE_CURVE_WITH_KNOTS ( 'NONE', 3,
 ( #746, #102, #912, #31, #728, #818, #633 ),
 .UNSPECIFIED., .F., .F.,
 ( 4, 3, 4 ),
 ( 0.000000000000000000, 1.000000000000000000, 2.000000000000000000 ),
 .UNSPECIFIED. ) ;
#970 = DIRECTION ( 'NONE',  ( -0.000000000000000000, -0.000000000000000000, -1.000000000000000000 ) ) ;
#971 = ORIENTED_EDGE ( 'NONE', *, *, #766, .T. ) ;
#972 = ORIENTED_EDGE ( 'NONE', *, *, #638, .F. ) ;
#973 = DIRECTION ( 'NONE',  ( -0.000000000000000000, -0.000000000000000000, -1.000000000000000000 ) ) ;
#974 = DIRECTION ( 'NONE',  ( 0.000000000000000000, 0.000000000000000000, 1.000000000000000000 ) ) ;
#975 = CARTESIAN_POINT ( 'NONE',  ( -56.09122175752222006, 119.9743897182954697, 1.600000000000000089 ) ) ;
#976 = ADVANCED_FACE ( 'NONE', ( #484 ), #16, .F. ) ;
#977 = MECHANICAL_CONTEXT ( 'NONE', #721, 'mechanical' ) ;
#978 = VECTOR ( 'NONE', #443, 1000.000000000000000 ) ;
#979 = EDGE_LOOP ( 'NONE', ( #293, #608, #281, #262 ) ) ;
#980 = DIRECTION ( 'NONE',  ( 0.000000000000000000, -1.000000000000000000, 0.000000000000000000 ) ) ;
#981 = AXIS2_PLACEMENT_3D ( 'NONE', #883, #980, #536 ) ;
#982 = VECTOR ( 'NONE', #338, 1000.000000000000000 ) ;
#983 = DIRECTION ( 'NONE',  ( 0.000000000000000000, -1.000000000000000000, 0.000000000000000000 ) ) ;
#984 = LINE ( 'NONE', #707, #978 ) ;
#985 = CARTESIAN_POINT ( 'NONE',  ( -51.85617643632263452, 124.4834666068837663, 1.600000000000000089 ) ) ;
#986 = EDGE_LOOP ( 'NONE', ( #737, #50, #696, #575 ) ) ;
#987 = CARTESIAN_POINT ( 'NONE',  ( -57.54160033947397324, 118.3850755765025724, 1.600000000000000089 ) ) ;
#988 = EDGE_CURVE ( 'NONE', #731, #243, #21, .T. ) ;
#989 = LINE ( 'NONE', #297, #364 ) ;
#990 = CARTESIAN_POINT ( 'NONE',  ( -51.20719370783133684, 106.2155576481060422, 1.600999999999999979 ) ) ;
#991 = DIRECTION ( 'NONE',  ( -0.000000000000000000, -0.000000000000000000, -1.000000000000000000 ) ) ;
#992 = EDGE_CURVE ( 'NONE', #1114, #418, #1093, .T. ) ;
#993 = FACE_OUTER_BOUND ( 'NONE', #986, .T. ) ;
#994 = PLANE ( 'NONE',  #695 ) ;
#995 = CALENDAR_DATE ( 2021, 29, 7 ) ;
#996 = ORIENTED_EDGE ( 'NONE', *, *, #337, .F. ) ;
#997 = DIRECTION ( 'NONE',  ( 0.000000000000000000, 1.000000000000000000, -0.000000000000000000 ) ) ;
#998 = AXIS2_PLACEMENT_3D ( 'NONE', #927, #823, #839 ) ;
#999 = VECTOR ( 'NONE', #828, 1000.000000000000000 ) ;
#1000 = FACE_OUTER_BOUND ( 'NONE', #854, .T. ) ;
#1001 = DIRECTION ( 'NONE',  ( -0.000000000000000000, 0.000000000000000000, -1.000000000000000000 ) ) ;
#1002 = APPROVAL_STATUS ( 'not_yet_approved' ) ;
#1003 = ORIENTED_EDGE ( 'NONE', *, *, #160, .F. ) ;
#1004 = CARTESIAN_POINT ( 'NONE',  ( -43.75076237885523511, 108.9550582221971808, 1.600000000000000089 ) ) ;
#1005 = DIRECTION ( 'NONE',  ( -1.000000000000000000, 0.000000000000000000, 0.000000000000000000 ) ) ;
#1006 = CARTESIAN_POINT ( 'NONE',  ( -4.494884577999999742, 211.2138574457000004, 0.000000000000000000 ) ) ;
#1007 = PERSON_AND_ORGANIZATION_ROLE ( 'creator' ) ;
#1008 = EDGE_CURVE ( 'NONE', #94, #243, #112, .T. ) ;
#1009 = ORIENTED_EDGE ( 'NONE', *, *, #881, .F. ) ;
#1010 = CARTESIAN_POINT ( 'NONE',  ( -53.07275031005590904, 106.0756116667682676, 1.600999999999999979 ) ) ;
#1011 = CARTESIAN_POINT ( 'NONE',  ( -4.494884577999999742, 201.5890574457000071, 1.600000000000000089 ) ) ;
#1012 = CARTESIAN_POINT ( 'NONE',  ( -46.05991064488129894, 113.5615686305051497, 1.600999999999999979 ) ) ;
#1013 = EDGE_CURVE ( 'NONE', #300, #882, #213, .T. ) ;
#1014 = EDGE_LOOP ( 'NONE', ( #540, #636, #80, #765 ) ) ;
#1015 = DIRECTION ( 'NONE',  ( -1.000000000000000000, 0.000000000000000000, 0.000000000000000000 ) ) ;
#1016 = VECTOR ( 'NONE', #49, 1000.000000000000000 ) ;
#1017 = VECTOR ( 'NONE', #1109, 1000.000000000000000 ) ;
#1018 = CARTESIAN_POINT ( 'NONE',  ( -58.74041932659848442, 119.8291725896543767, 1.600999999999999979 ) ) ;
#1019 = CC_DESIGN_APPROVAL ( #1122, ( #670 ) ) ;
#1020 = FACE_OUTER_BOUND ( 'NONE', #1120, .T. ) ;
#1021 = ORIENTED_EDGE ( 'NONE', *, *, #664, .F. ) ;
#1022 = DIRECTION ( 'NONE',  ( -1.000000000000000000, 0.000000000000000000, 0.000000000000000000 ) ) ;
#1023 = ADVANCED_FACE ( 'NONE', ( #586, #503 ), #68, .F. ) ;
#1024 = CARTESIAN_POINT ( 'NONE',  ( -53.01049824871006422, 117.2585686837270060, 1.600999999999999979 ) ) ;
#1025 = DIRECTION ( 'NONE',  ( -1.000000000000000000, 0.000000000000000000, 0.000000000000000000 ) ) ;
#1026 = EDGE_LOOP ( 'NONE', ( #413, #956, #1087, #631 ) ) ;
#1027 = CARTESIAN_POINT ( 'NONE',  ( -57.86646224820889728, 108.4136222723076628, 1.600000000000000089 ) ) ;
#1028 = EDGE_LOOP ( 'NONE', ( #57, #816, #1155, #142 ) ) ;
#1029 = EDGE_CURVE ( 'NONE', #860, #771, #144, .T. ) ;
#1030 = CARTESIAN_POINT ( 'NONE',  ( 129.2759494494000307, 0.000000000000000000, 0.000000000000000000 ) ) ;
#1031 = CARTESIAN_POINT ( 'NONE',  ( -4.494884577999999742, 0.000000000000000000, 1.600000000000000089 ) ) ;
#1032 = ORIENTED_EDGE ( 'NONE', *, *, #1128, .F. ) ;
#1033 = CARTESIAN_POINT ( 'NONE',  ( -57.00756169617291391, 112.8951650811925589, 1.600999999999999979 ) ) ;
#1034 = ORIENTED_EDGE ( 'NONE', *, *, #898, .T. ) ;
#1035 = CARTESIAN_POINT ( 'NONE',  ( -50.07375432950292549, 123.8780893867788677, 1.600000000000000089 ) ) ;
#1036 = EDGE_CURVE ( 'NONE', #725, #882, #685, .T. ) ;
#1037 = CIRCLE ( 'NONE', #421, 6.390956078739781887 ) ;
#1038 = DIRECTION ( 'NONE',  ( -0.000000000000000000, 0.000000000000000000, 1.000000000000000000 ) ) ;
#1039 = CIRCLE ( 'NONE', #603, 1.036678732839843686 ) ;
#1040 = CC_DESIGN_APPROVAL ( #829, ( #795 ) ) ;
#1041 = ORIENTED_EDGE ( 'NONE', *, *, #752, .T. ) ;
#1042 = CARTESIAN_POINT ( 'NONE',  ( 0.000000000000000000, 198.5890574457000071, 1.600000000000000089 ) ) ;
#1043 = B_SPLINE_CURVE_WITH_KNOTS ( 'NONE', 3,
 ( #282, #802, #726, #716, #1078, #184, #627, #987, #1156, #95 ),
 .UNSPECIFIED., .F., .F.,
 ( 4, 3, 3, 4 ),
 ( 0.000000000000000000, 1.000000000000000000, 2.000000000000000000, 3.000000000000000000 ),
 .UNSPECIFIED. ) ;
#1044 = DIRECTION ( 'NONE',  ( 1.000000000000000000, 1.914198641692001400E-15, 0.000000000000000000 ) ) ;
#1045 = ORIENTED_EDGE ( 'NONE', *, *, #690, .F. ) ;
#1046 = EDGE_CURVE ( 'NONE', #1064, #686, #563, .T. ) ;
#1047 = CARTESIAN_POINT ( 'NONE',  ( -45.46303573850377688, 112.7176272775063381, 1.600000000000000089 ) ) ;
#1048 = ORIENTED_EDGE ( 'NONE', *, *, #75, .F. ) ;
#1049 = LINE ( 'NONE', #1157, #435 ) ;
#1050 = ORIENTED_EDGE ( 'NONE', *, *, #29, .F. ) ;
#1051 = CARTESIAN_POINT ( 'NONE',  ( -51.60371763489371943, 108.5994135110447019, 1.600000000000000089 ) ) ;
#1052 = VERTEX_POINT ( 'NONE', #937 ) ;
#1053 = PLANE ( 'NONE',  #384 ) ;
#1054 = CARTESIAN_POINT ( 'NONE',  ( -51.85617643632263452, 124.4834666068837663, 1.600999999999999979 ) ) ;
#1055 = CARTESIAN_POINT ( 'NONE',  ( -60.80983809632563464, 121.3437378753012013, 1.600999999999999979 ) ) ;
#1056 = VECTOR ( 'NONE', #557, 1000.000000000000000 ) ;
#1057 = ORIENTED_EDGE ( 'NONE', *, *, #1137, .T. ) ;
#1058 = CARTESIAN_POINT ( 'NONE',  ( -57.12790049036206597, 119.9743897182954697, 1.600000000000000089 ) ) ;
#1059 = UNCERTAINTY_MEASURE_WITH_UNIT (LENGTH_MEASURE( 1.000000000000000082E-05 ), #76, 'distance_accuracy_value', 'NONE');
#1060 = EDGE_CURVE ( 'NONE', #256, #226, #227, .T. ) ;
#1061 = DIRECTION ( 'NONE',  ( 0.000000000000000000, -1.000000000000000000, 0.000000000000000000 ) ) ;
#1062 = ORIENTED_EDGE ( 'NONE', *, *, #238, .T. ) ;
#1063 = CARTESIAN_POINT ( 'NONE',  ( -54.04470733448581399, 125.0221522996537971, 1.600000000000000089 ) ) ;
#1064 = VERTEX_POINT ( 'NONE', #581 ) ;
#1065 = CARTESIAN_POINT ( 'NONE',  ( -154.4240531977000046, 0.000000000000000000, 1.600000000000000089 ) ) ;
#1066 = EDGE_CURVE ( 'NONE', #967, #430, #678, .T. ) ;
#1067 = CARTESIAN_POINT ( 'NONE',  ( 0.000000000000000000, 213.4138574456999891, -4.000000000000000000 ) ) ;
#1068 = ORIENTED_EDGE ( 'NONE', *, *, #22, .T. ) ;
#1069 = CARTESIAN_POINT ( 'NONE',  ( -45.88638601185805044, 115.9138118885420425, 1.600999999999999979 ) ) ;
#1070 = EDGE_LOOP ( 'NONE', ( #971, #580, #44, #169 ) ) ;
#1071 = CARTESIAN_POINT ( 'NONE',  ( 0.000000000000000000, 211.2138574457000004, 1.600000000000000089 ) ) ;
#1072 = LINE ( 'NONE', #879, #1110 ) ;
#1073 = CARTESIAN_POINT ( 'NONE',  ( 0.000000000000000000, 0.000000000000000000, 1.600999999999999979 ) ) ;
#1074 = ADVANCED_FACE ( 'NONE', ( #776 ), #495, .F. ) ;
#1075 = CIRCLE ( 'NONE', #740, 1.036678732839843686 ) ;
#1076 = AXIS2_PLACEMENT_3D ( 'NONE', #793, #355, #1151 ) ;
#1077 = VERTEX_POINT ( 'NONE', #490 ) ;
#1078 = CARTESIAN_POINT ( 'NONE',  ( -57.86646224820889728, 108.4136222723076628, 1.600000000000000089 ) ) ;
#1079 = LINE ( 'NONE', #180, #943 ) ;
#1080 = DIRECTION ( 'NONE',  ( -0.000000000000000000, -0.000000000000000000, -1.000000000000000000 ) ) ;
#1081 = EDGE_CURVE ( 'NONE', #1104, #266, #1115, .T. ) ;
#1082 = VERTEX_POINT ( 'NONE', #51 ) ;
#1083 = CARTESIAN_POINT ( 'NONE',  ( 0.000000000000000000, 198.5890574457000071, 0.000000000000000000 ) ) ;
#1084 = LINE ( 'NONE', #734, #1131 ) ;
#1085 = CARTESIAN_POINT ( 'NONE',  ( -57.34070323414459835, 116.6784729188105985, 1.600999999999999979 ) ) ;
#1086 = PERSON_AND_ORGANIZATION_ROLE ( 'creator' ) ;
#1087 = ORIENTED_EDGE ( 'NONE', *, *, #356, .T. ) ;
#1088 = CARTESIAN_POINT ( 'NONE',  ( 129.2759494494000307, 201.5890574457000071, 0.000000000000000000 ) ) ;
#1089 = CARTESIAN_POINT ( 'NONE',  ( 0.000000000000000000, 201.5890574457000071, 1.600000000000000089 ) ) ;
#1090 = DIRECTION ( 'NONE',  ( -1.000000000000000000, 0.000000000000000000, 0.000000000000000000 ) ) ;
#1091 = APPROVAL_DATE_TIME ( #901, #949 ) ;
#1092 = ORIENTED_EDGE ( 'NONE', *, *, #561, .T. ) ;
#1093 = LINE ( 'NONE', #646, #1056 ) ;
#1094 = VECTOR ( 'NONE', #841, 1000.000000000000000 ) ;
#1095 = EDGE_CURVE ( 'NONE', #877, #132, #122, .T. ) ;
#1096 = DIRECTION ( 'NONE',  ( 0.000000000000000000, -1.000000000000000000, 0.000000000000000000 ) ) ;
#1097 = CARTESIAN_POINT ( 'NONE',  ( -53.07275031005590904, 106.0756116667682676, 1.600999999999999979 ) ) ;
#1098 = DATE_TIME_ROLE ( 'classification_date' ) ;
#1099 = ORIENTED_EDGE ( 'NONE', *, *, #324, .T. ) ;
#1100 = DIRECTION ( 'NONE',  ( 0.000000000000000000, 0.000000000000000000, 1.000000000000000000 ) ) ;
#1101 = LINE ( 'NONE', #558, #234 ) ;
#1102 = ADVANCED_FACE ( 'NONE', ( #56 ), #1134, .T. ) ;
#1103 = CARTESIAN_POINT ( 'NONE',  ( -55.03628593858111628, 106.5378980340810955, 1.600999999999999979 ) ) ;
#1104 = VERTEX_POINT ( 'NONE', #966 ) ;
#1105 = CARTESIAN_POINT ( 'NONE',  ( -61.33896801495502871, 109.3106406402155102, 1.600000000000000089 ) ) ;
#1106 = CARTESIAN_POINT ( 'NONE',  ( -18.65119192330000075, 0.000000000000000000, -4.000000000000000000 ) ) ;
#1107 = DIRECTION ( 'NONE',  ( -0.000000000000000000, -0.000000000000000000, -1.000000000000000000 ) ) ;
#1108 = ORIENTED_EDGE ( 'NONE', *, *, #154, .T. ) ;
#1109 = DIRECTION ( 'NONE',  ( -0.000000000000000000, -0.000000000000000000, -1.000000000000000000 ) ) ;
#1110 = VECTOR ( 'NONE', #789, 1000.000000000000000 ) ;
#1111 = CARTESIAN_POINT ( 'NONE',  ( -45.18328049463511320, 112.4695539384695024, 1.600000000000000089 ) ) ;
#1112 = MANIFOLD_SOLID_BREP ( '凸台-拉伸2', #313 ) ;
#1113 = DIRECTION ( 'NONE',  ( 0.000000000000000000, -0.000000000000000000, -1.000000000000000000 ) ) ;
#1114 = VERTEX_POINT ( 'NONE', #162 ) ;
#1115 = LINE ( 'NONE', #843, #719 ) ;
#1116 = EDGE_CURVE ( 'NONE', #20, #132, #274, .T. ) ;
#1117 = ORIENTED_EDGE ( 'NONE', *, *, #372, .T. ) ;
#1118 = LINE ( 'NONE', #1030, #529 ) ;
#1119 = CYLINDRICAL_SURFACE ( 'NONE', #620, 7.249920413456976576 ) ;
#1120 = EDGE_LOOP ( 'NONE', ( #55, #1048, #339, #322 ) ) ;
#1121 = CARTESIAN_POINT ( 'NONE',  ( 0.000000000000000000, 0.000000000000000000, 0.000000000000000000 ) ) ;
#1122 = APPROVAL ( #1002, '未指定' ) ;
#1123 = PLANE ( 'NONE',  #197 ) ;
#1124 = FACE_OUTER_BOUND ( 'NONE', #1070, .T. ) ;
#1125 = ORIENTED_EDGE ( 'NONE', *, *, #75, .T. ) ;
#1126 = CARTESIAN_POINT ( 'NONE',  ( -57.54160033947397324, 118.3850755765025724, 1.600000000000000089 ) ) ;
#1127 = EDGE_LOOP ( 'NONE', ( #865, #952, #598, #1092 ) ) ;
#1128 = EDGE_CURVE ( 'NONE', #216, #137, #81, .T. ) ;
#1129 = AXIS2_PLACEMENT_3D ( 'NONE', #370, #729, #284 ) ;
#1130 = CARTESIAN_POINT ( 'NONE',  ( -157.4240531977000046, 201.5890574457000071, 1.600000000000000089 ) ) ;
#1131 = VECTOR ( 'NONE', #108, 1000.000000000000000 ) ;
#1132 = EDGE_LOOP ( 'NONE', ( #77, #520, #684, #1068 ) ) ;
#1133 = CARTESIAN_POINT ( 'NONE',  ( -140.4240531977000046, 0.000000000000000000, 0.000000000000000000 ) ) ;
#1134 = B_SPLINE_SURFACE_WITH_KNOTS ( 'NONE', 3, 1, ( 
 ( #593, #806 ),
 ( #1055, #624 ),
 ( #887, #182 ),
 ( #787, #267 ),
 ( #8, #1063 ),
 ( #438, #985 ),
 ( #894, #872 ),
 ( #2, #613 ),
 ( #1154, #708 ),
 ( #791, #1144 ),
 ( #359, #347 ),
 ( #255, #607 ),
 ( #366, #280 ) ),
 .UNSPECIFIED., .F., .F., .F.,
 ( 4, 3, 3, 3, 4 ),
 ( 2, 2 ),
 ( 0.000000000000000000, 1.000000000000000000, 2.000000000000000000, 3.000000000000000000, 4.000000000000000000 ),
 ( 0.000000000000000000, 1.000000000000000000 ),
 .UNSPECIFIED. ) ;
#1135 = ORIENTED_EDGE ( 'NONE', *, *, #610, .F. ) ;
#1136 = PLANE ( 'NONE',  #82 ) ;
#1137 = EDGE_CURVE ( 'NONE', #20, #760, #176, .T. ) ;
#1138 = DIRECTION ( 'NONE',  ( -1.000000000000000000, 0.000000000000000000, 0.000000000000000000 ) ) ;
#1139 = CARTESIAN_POINT ( 'NONE',  ( -60.80983809632563464, 121.3437378753012013, 1.600000000000000089 ) ) ;
#1140 = EDGE_LOOP ( 'NONE', ( #515, #150, #792, #231 ) ) ;
#1141 = CARTESIAN_POINT ( 'NONE',  ( -140.4240531977000046, 0.000000000000000000, 1.600000000000000089 ) ) ;
#1142 = PRODUCT_DEFINITION_SHAPE ( 'NONE', 'NONE',  #670 ) ;
#1143 = CARTESIAN_POINT ( 'NONE',  ( -59.71039254873078050, 124.0026199191554923, 1.600999999999999979 ) ) ;
#1144 = CARTESIAN_POINT ( 'NONE',  ( -46.22499379731603852, 113.9910115931604082, 1.600000000000000089 ) ) ;
#1145 = ORIENTED_EDGE ( 'NONE', *, *, #29, .T. ) ;
#1146 = DIRECTION ( 'NONE',  ( -0.000000000000000000, -0.000000000000000000, -1.000000000000000000 ) ) ;
#1147 = DIRECTION ( 'NONE',  ( -1.000000000000000000, 0.000000000000000000, 0.000000000000000000 ) ) ;
#1148 = AXIS2_PLACEMENT_3D ( 'NONE', #417, #1113, #1044 ) ;
#1149 = DIRECTION ( 'NONE',  ( 1.000000000000000000, 1.531358913353601120E-14, 0.000000000000000000 ) ) ;
#1150 = ORIENTED_EDGE ( 'NONE', *, *, #780, .T. ) ;
#1151 = DIRECTION ( 'NONE',  ( -1.000000000000000000, 0.000000000000000000, 0.000000000000000000 ) ) ;
#1152 = EDGE_CURVE ( 'NONE', #367, #1064, #714, .T. ) ;
#1153 = CARTESIAN_POINT ( 'NONE',  ( 0.000000000000000000, 184.5890574457000071, 0.000000000000000000 ) ) ;
#1154 = CARTESIAN_POINT ( 'NONE',  ( -47.32982896432618958, 116.8651006832272685, 1.600999999999999979 ) ) ;
#1155 = ORIENTED_EDGE ( 'NONE', *, *, #577, .F. ) ;
#1156 = CARTESIAN_POINT ( 'NONE',  ( -58.33498330928794928, 119.1269368084533511, 1.600000000000000089 ) ) ;
#1157 = CARTESIAN_POINT ( 'NONE',  ( -52.76554927443196874, 117.3999900399641660, 1.600999999999999979 ) ) ;
ENDSEC;
END-ISO-10303-21;
